# Blender 5.2.0 LTS
# www.blender.org
mtllib sonicspringerreplacement.mtl
o RenderMesh_75100380813622
v 0.000000 0.023457 -0.739286
v 0.580701 -0.349684 -0.489748
v 0.576036 0.091089 -0.524730
v 0.000000 0.340627 -0.473423
v 0.000000 0.023457 -0.739286
v 0.576036 0.091089 -0.524730
v 0.000000 0.340627 -0.473423
v 0.576036 0.091089 -0.524730
v 0.461762 0.349956 -0.137596
v 0.000000 0.473558 -0.114275
v 0.000000 0.340627 -0.473423
v 0.461762 0.349956 -0.137596
v 0.268195 -0.781129 -0.342823
v 0.580701 -0.349684 -0.489748
v 0.000000 -0.552580 -0.622680
v 0.000000 -0.816111 -0.340492
v 0.268195 -0.781129 -0.342823
v 0.000000 -0.552580 -0.622680
v 0.580701 -0.349684 -0.489748
v 0.000000 0.023457 -0.739286
v 0.000000 -0.552580 -0.622680
v -0.571373 1.931142 -0.981828
v -0.506073 0.786064 -0.923525
v -0.151589 0.818714 -1.124088
v -0.130600 1.152210 -1.152074
v -0.571373 1.931142 -0.981828
v -0.151589 0.818714 -1.124088
v -0.130600 1.152210 -1.152074
v -0.151589 0.818714 -1.124088
v 0.000000 0.832707 -1.140413
v 0.000000 1.119560 -1.163734
v -0.130600 1.152210 -1.152074
v 0.000000 0.832707 -1.140413
v -0.000001 2.201669 -1.075113
v -0.000001 2.675092 -0.739286
v -0.445438 2.553821 -0.678651
v -0.599359 2.320607 -0.876882
v -0.000001 2.201669 -1.075113
v -0.445438 2.553821 -0.678651
v 0.000000 0.429248 -0.965503
v 0.000000 0.753414 -1.271012
v -0.708969 0.585501 -0.876882
v -0.468759 0.380273 -0.711301
v 0.000000 0.429248 -0.965503
v -0.708969 0.585501 -0.876882
v -0.506073 0.786064 -0.923525
v -0.956174 0.828042 -0.646001
v -0.708969 0.585501 -0.876882
v -0.151589 0.818714 -1.124088
v -0.506073 0.786064 -0.923525
v -0.708969 0.585501 -0.876882
v -0.151589 0.818714 -1.124088
v -0.708969 0.585501 -0.876882
v 0.000000 0.753414 -1.271012
v 0.000000 0.832707 -1.140413
v -0.151589 0.818714 -1.124088
v 0.000000 0.753414 -1.271012
v -0.468759 0.380273 -0.711301
v 0.000000 0.317306 -0.321834
v 0.000000 0.429248 -0.965503
v -1.021474 0.797726 -0.095617
v -0.956174 0.828042 -0.646001
v -1.086774 1.243162 -0.527062
v -1.182392 1.163870 0.676318
v -1.021474 0.797726 -0.095617
v -1.086774 1.243162 -0.527062
v -1.182392 1.163870 0.676318
v -1.086774 1.243162 -0.527062
v -1.203381 2.066405 -0.293849
v -0.130600 1.152210 -1.152074
v 0.000000 1.119560 -1.163734
v 0.000000 1.217510 -1.215042
v -0.130600 1.152210 -1.152074
v 0.000000 1.217510 -1.215042
v -0.571373 1.931142 -0.981828
v -1.086774 1.243162 -0.527062
v -0.956174 0.828042 -0.646001
v -0.506073 0.786064 -0.923525
v -0.571373 1.931142 -0.981828
v -1.086774 1.243162 -0.527062
v -0.506073 0.786064 -0.923525
v -0.571373 1.931142 -0.981828
v -0.599359 2.320607 -0.876882
v -1.105431 2.110715 -0.576037
v -1.086774 1.243162 -0.527062
v -0.571373 1.931142 -0.981828
v -1.105431 2.110715 -0.576037
v -0.599359 2.320607 -0.876882
v -0.571373 1.931142 -0.981828
v -0.000001 1.732910 -1.261684
v -0.000001 2.201669 -1.075113
v -0.599359 2.320607 -0.876882
v -0.000001 1.732910 -1.261684
v -0.708969 0.585501 -0.876882
v -0.956174 0.828042 -0.646001
v -1.021474 0.797726 -0.095617
v -0.666990 0.429249 -0.240210
v -0.708969 0.585501 -0.876882
v -1.021474 0.797726 -0.095617
v -0.468759 0.380273 -0.711301
v -0.708969 0.585501 -0.876882
v -0.666990 0.429249 -0.240210
v 0.000000 0.317306 -0.321834
v -0.468759 0.380273 -0.711301
v -0.666990 0.429249 -0.240210
v -1.105431 2.110715 -0.576037
v -0.599359 2.320607 -0.876882
v -1.203381 2.066405 -0.293849
v -1.203381 2.066405 -0.293849
v -0.599359 2.320607 -0.876882
v -0.445438 2.553821 -0.678651
v -1.182392 1.163870 0.676318
v -0.666990 0.429249 -0.240210
v -1.021474 0.797726 -0.095617
v -1.086774 1.243162 -0.527062
v -1.105431 2.110715 -0.576037
v -1.203381 2.066405 -0.293849
v 0.000000 1.217510 -1.215042
v -0.000001 1.732910 -1.261684
v -0.571373 1.931142 -0.981828
v -1.203381 2.066405 -0.293849
v -0.445438 2.553821 -0.678651
v -1.168399 3.162508 -0.566709
v -0.000001 3.057561 1.483236
v -0.426781 2.908305 1.487900
v -0.629676 2.817352 0.606355
v -0.000001 3.052897 0.634340
v -0.000001 3.057561 1.483236
v -0.629676 2.817352 0.606355
v -0.000001 3.052897 0.634340
v -0.629676 2.817352 0.606355
v -0.720629 2.810356 0.158585
v -0.000001 2.940955 0.083956
v -0.000001 3.052897 0.634340
v -0.720629 2.810356 0.158585
v -0.000001 2.940955 0.083956
v -0.720629 2.810356 0.158585
v -0.445438 2.553821 -0.678651
v -0.000001 2.675092 -0.739286
v -0.000001 2.940955 0.083956
v -0.445438 2.553821 -0.678651
v -1.245359 2.245979 1.520550
v -0.629676 2.817352 0.606355
v -0.615683 2.406897 0.932853
v -0.559712 1.488037 1.082109
v -1.245359 2.245979 1.520550
v -0.615683 2.406897 0.932853
v -0.559712 1.488037 1.082109
v -0.615683 2.406897 0.932853
v -0.000001 2.047749 1.161402
v -0.277524 1.485704 1.506558
v -0.559712 1.488037 1.082109
v -0.000001 2.047749 1.161402
v 0.000000 0.317306 -0.321834
v -0.666990 0.429249 -0.240210
v -0.256535 0.314973 0.457098
v 0.000000 0.284656 0.475755
v 0.000000 0.317306 -0.321834
v -0.256535 0.314973 0.457098
v 0.000000 0.284656 0.475755
v -0.256535 0.314973 0.457098
v -0.000001 0.646136 1.098434
v -0.104946 0.925992 -1.527548
v 0.000000 0.648469 -0.916528
v 0.000000 0.781399 -1.571857
v 0.000000 0.916663 -1.611504
v -0.104946 0.925992 -1.527548
v 0.000000 0.781399 -1.571857
v 0.000000 0.916663 -1.611504
v 0.000000 0.781399 -1.571857
v 0.102613 0.925992 -1.527548
v -0.104946 0.925992 -1.527548
v 0.000000 0.916663 -1.611504
v 0.102613 0.925992 -1.527548
v -0.104946 0.925992 -1.527548
v 0.102613 0.925992 -1.527548
v 0.000000 0.648469 -0.916528
v -1.166067 0.692779 0.545719
v -1.261684 0.800057 1.149741
v -1.243027 -0.013856 1.774752
v -0.256535 0.314973 0.457098
v -1.166067 0.692779 0.545719
v -1.243027 -0.013856 1.774752
v -0.256535 0.314973 0.457098
v -1.243027 -0.013856 1.774752
v -0.466427 1.070584 1.124088
v -0.000001 0.646136 1.098434
v -0.256535 0.314973 0.457098
v -0.466427 1.070584 1.124088
v -0.426781 0.984296 1.326983
v -0.466427 1.070584 1.124088
v -0.559712 1.488037 1.082109
v -1.515887 1.341112 1.375958
v -1.182392 1.163870 0.676318
v -1.203381 2.066405 -0.293849
v -1.245359 2.245979 1.520550
v -1.515887 1.341112 1.375958
v -1.203381 2.066405 -0.293849
v -1.245359 2.245979 1.520550
v -1.203381 2.066405 -0.293849
v -0.629676 2.817352 0.606355
v -1.182392 1.163870 0.676318
v -0.559712 1.488037 1.082109
v -0.466427 1.070584 1.124088
v -1.261684 0.800057 1.149741
v -1.182392 1.163870 0.676318
v -0.466427 1.070584 1.124088
v -1.261684 0.800057 1.149741
v -0.466427 1.070584 1.124088
v -1.243027 -0.013856 1.774752
v -0.000001 2.707742 2.597996
v -0.426781 2.908305 1.487900
v -0.000001 3.057561 1.483236
v -0.426781 2.908305 1.487900
v -0.000001 2.707742 2.597996
v -0.000001 2.047749 1.161402
v -0.615683 2.406897 0.932853
v -0.426781 2.908305 1.487900
v -0.000001 2.047749 1.161402
v -0.559712 1.488037 1.082109
v -1.182392 1.163870 0.676318
v -1.515887 1.341112 1.375958
v -1.581187 1.371430 2.432415
v -0.559712 1.488037 1.082109
v -1.515887 1.341112 1.375958
v -1.203381 2.066405 -0.293849
v -1.168399 3.162508 -0.566709
v -0.720629 2.810356 0.158585
v -0.629676 2.817352 0.606355
v -1.203381 2.066405 -0.293849
v -0.720629 2.810356 0.158585
v -1.261684 0.800057 1.149741
v -1.166067 0.692779 0.545719
v -1.182392 1.163870 0.676318
v -1.182392 1.163870 0.676318
v -1.166067 0.692779 0.545719
v -0.666990 0.429249 -0.240210
v 0.102613 0.925992 -1.527548
v 0.000000 0.781399 -1.571857
v 0.000000 0.648469 -0.916528
v -0.615683 2.406897 0.932853
v -0.629676 2.817352 0.606355
v -0.426781 2.908305 1.487900
v -1.245359 2.245979 1.520550
v -1.581187 1.371430 2.432415
v -1.515887 1.341112 1.375958
v -0.559712 1.488037 1.082109
v -1.581187 1.371430 2.432415
v -1.245359 2.245979 1.520550
v -0.256535 0.314973 0.457098
v -0.666990 0.429249 -0.240210
v -1.166067 0.692779 0.545719
v -0.445438 2.553821 -0.678651
v -0.720629 2.810356 0.158585
v -1.168399 3.162508 -0.566709
v 0.506073 0.168050 -0.221553
v 0.767271 -0.160782 0.004664
v 0.608687 0.259002 -0.240210
v 0.501408 0.282323 -0.198231
v 0.506073 0.168050 -0.221553
v 0.608687 0.259002 -0.240210
v 0.501408 0.282323 -0.198231
v 0.608687 0.259002 -0.240210
v 0.557380 0.247342 -0.088621
v 0.506073 0.168050 -0.221553
v 0.501408 0.282323 -0.198231
v 0.557380 0.247342 -0.088621
v 0.506073 0.168050 -0.221553
v 0.557380 0.247342 -0.088621
v 0.830239 -0.123468 0.137596
v 0.767271 -0.160782 0.004664
v 0.506073 0.168050 -0.221553
v 0.830239 -0.123468 0.137596
v 0.767271 -0.160782 0.004664
v 0.830239 -0.123468 0.137596
v 1.012145 -0.636537 0.216889
v 0.932853 -0.683179 0.069964
v 0.767271 -0.160782 0.004664
v 1.012145 -0.636537 0.216889
v 0.932853 -0.683179 0.069964
v 1.012145 -0.636537 0.216889
v 1.089106 -0.629539 0.062968
v 0.890875 -0.121135 0.000000
v 0.932853 -0.683179 0.069964
v 1.089106 -0.629539 0.062968
v 0.704304 0.044446 0.811582
v 0.000000 -0.373005 0.454766
v 0.000000 0.086424 0.482752
v 0.704304 0.044446 0.811582
v 0.000000 0.086424 0.482752
v 0.000000 0.300981 0.438441
v 0.461762 0.349956 -0.137596
v 0.704304 0.044446 0.811582
v 0.000000 0.300981 0.438441
v 0.461762 0.349956 -0.137596
v 0.000000 0.300981 0.438441
v 0.000000 0.473558 -0.114275
v 0.785929 -0.449967 0.527062
v 0.907199 -0.832436 1.135749
v 0.704304 0.044446 0.811582
v 0.636672 -0.373005 0.072296
v 0.785929 -0.449967 0.527062
v 0.704304 0.044446 0.811582
v 0.636672 -0.373005 0.072296
v 0.704304 0.044446 0.811582
v 0.576036 0.091089 -0.524730
v 0.580701 -0.349684 -0.489748
v 0.636672 -0.373005 0.072296
v 0.576036 0.091089 -0.524730
v 0.830239 -0.123468 0.137596
v 0.557380 0.247342 -0.088621
v 0.890875 -0.121135 0.000000
v 1.012145 -0.636537 0.216889
v 0.830239 -0.123468 0.137596
v 0.890875 -0.121135 0.000000
v 1.012145 -0.636537 0.216889
v 0.890875 -0.121135 0.000000
v 1.089106 -0.629539 0.062968
v 0.128267 -0.797453 0.128268
v 0.000000 -1.219570 1.231366
v 0.000000 -0.589894 0.375473
v 0.636672 -0.373005 0.072296
v 0.128267 -0.797453 0.128268
v 0.000000 -0.589894 0.375473
v 0.636672 -0.373005 0.072296
v 0.000000 -0.589894 0.375473
v 0.000000 -0.373005 0.454766
v 0.580701 -0.349684 -0.489748
v 0.268195 -0.781129 -0.342823
v 0.569040 -0.610883 -0.123603
v 0.636672 -0.373005 0.072296
v 0.580701 -0.349684 -0.489748
v 0.569040 -0.610883 -0.123603
v 0.636672 -0.373005 0.072296
v 0.569040 -0.610883 -0.123603
v 0.128267 -0.797453 0.128268
v 0.704304 0.044446 0.811582
v 0.907199 -0.832436 1.135749
v 0.240210 -0.417316 0.641336
v 0.000000 -0.373005 0.454766
v 0.704304 0.044446 0.811582
v 0.240210 -0.417316 0.641336
v 0.128267 -0.797453 0.128268
v 0.268195 -0.781129 -0.342823
v 0.000000 -0.816111 -0.340492
v 0.000000 -0.834767 0.128268
v 0.128267 -0.797453 0.128268
v 0.000000 -0.816111 -0.340492
v 0.767271 -0.160782 0.004664
v 0.932853 -0.683179 0.069964
v 0.890875 -0.121135 0.000000
v 0.608687 0.259002 -0.240210
v 0.767271 -0.160782 0.004664
v 0.890875 -0.121135 0.000000
v 0.636672 -0.373005 0.072296
v 0.000000 -0.373005 0.454766
v 0.785929 -0.449967 0.527062
v 0.785929 -0.449967 0.527062
v 0.000000 -0.373005 0.454766
v 0.240210 -0.417316 0.641336
v 0.890875 -0.121135 0.000000
v 0.557380 0.247342 -0.088621
v 0.608687 0.259002 -0.240210
v 0.576036 0.091089 -0.524730
v 0.704304 0.044446 0.811582
v 0.461762 0.349956 -0.137596
v 0.000000 -0.834767 0.128268
v 0.000000 -1.219570 1.231366
v 0.128267 -0.797453 0.128268
v 0.240210 -0.417316 0.641336
v 0.907199 -0.832436 1.135749
v 0.785929 -0.449967 0.527062
v 0.128267 -0.797453 0.128268
v 0.569040 -0.610883 -0.123603
v 0.268195 -0.781129 -0.342823
v 0.000000 0.023457 -0.739286
v -0.578369 0.091089 -0.524730
v -0.583034 -0.349684 -0.489748
v 0.000000 0.340627 -0.473423
v -0.578369 0.091089 -0.524730
v 0.000000 0.023457 -0.739286
v 0.000000 0.340627 -0.473423
v -0.464095 0.349956 -0.137596
v -0.578369 0.091089 -0.524730
v 0.000000 0.473558 -0.114275
v -0.464095 0.349956 -0.137596
v 0.000000 0.340627 -0.473423
v -0.270527 -0.781129 -0.342823
v 0.000000 -0.552580 -0.622680
v -0.583034 -0.349684 -0.489748
v 0.000000 -0.816111 -0.340492
v 0.000000 -0.552580 -0.622680
v -0.270527 -0.781129 -0.342823
v -0.583034 -0.349684 -0.489748
v 0.000000 -0.552580 -0.622680
v 0.000000 0.023457 -0.739286
v -0.706636 0.044446 0.811582
v 0.000000 0.086424 0.482752
v 0.000000 -0.373005 0.454766
v -0.706636 0.044446 0.811582
v 0.000000 0.300981 0.438441
v 0.000000 0.086424 0.482752
v -0.464095 0.349956 -0.137596
v 0.000000 0.300981 0.438441
v -0.706636 0.044446 0.811582
v -0.464095 0.349956 -0.137596
v 0.000000 0.473558 -0.114275
v 0.000000 0.300981 0.438441
v -0.788261 -0.449967 0.527062
v -0.706636 0.044446 0.811582
v -0.909532 -0.832436 1.135749
v -0.639004 -0.373005 0.072296
v -0.706636 0.044446 0.811582
v -0.788261 -0.449967 0.527062
v -0.639004 -0.373005 0.072296
v -0.578369 0.091089 -0.524730
v -0.706636 0.044446 0.811582
v -0.583034 -0.349684 -0.489748
v -0.578369 0.091089 -0.524730
v -0.639004 -0.373005 0.072296
v -0.130599 -0.797453 0.128268
v 0.000000 -0.589894 0.375473
v 0.000000 -1.219570 1.231366
v -0.639004 -0.373005 0.072296
v 0.000000 -0.589894 0.375473
v -0.130599 -0.797453 0.128268
v -0.639004 -0.373005 0.072296
v 0.000000 -0.373005 0.454766
v 0.000000 -0.589894 0.375473
v -0.583034 -0.349684 -0.489748
v -0.571373 -0.610883 -0.123603
v -0.270527 -0.781129 -0.342823
v -0.639004 -0.373005 0.072296
v -0.571373 -0.610883 -0.123603
v -0.583034 -0.349684 -0.489748
v -0.639004 -0.373005 0.072296
v -0.130599 -0.797453 0.128268
v -0.571373 -0.610883 -0.123603
v -0.706636 0.044446 0.811582
v -0.242542 -0.417316 0.641336
v -0.909532 -0.832436 1.135749
v 0.000000 -0.373005 0.454766
v -0.242542 -0.417316 0.641336
v -0.706636 0.044446 0.811582
v -0.130599 -0.797453 0.128268
v 0.000000 -0.816111 -0.340492
v -0.270527 -0.781129 -0.342823
v 0.000000 -0.834767 0.128268
v 0.000000 -0.816111 -0.340492
v -0.130599 -0.797453 0.128268
v -0.639004 -0.373005 0.072296
v -0.788261 -0.449967 0.527062
v 0.000000 -0.373005 0.454766
v -0.788261 -0.449967 0.527062
v -0.242542 -0.417316 0.641336
v 0.000000 -0.373005 0.454766
v -0.578369 0.091089 -0.524730
v -0.464095 0.349956 -0.137596
v -0.706636 0.044446 0.811582
v 0.000000 -0.834767 0.128268
v -0.130599 -0.797453 0.128268
v 0.000000 -1.219570 1.231366
v -0.242542 -0.417316 0.641336
v -0.788261 -0.449967 0.527062
v -0.909532 -0.832436 1.135749
v -0.130599 -0.797453 0.128268
v -0.270527 -0.781129 -0.342823
v -0.571373 -0.610883 -0.123603
v -0.000001 1.658282 1.569526
v -0.000001 0.520201 2.325137
v -0.277524 1.485704 1.506558
v -0.000001 1.658282 1.569526
v -0.277524 1.485704 1.506558
v -0.000001 2.047749 1.161402
v -0.426781 0.984296 1.326983
v -0.000001 0.520201 2.325137
v -0.000001 0.646136 1.098434
v -0.426781 0.984296 1.326983
v -0.000001 0.646136 1.098434
v -0.466427 1.070584 1.124088
v -0.277524 1.485704 1.506558
v -0.000001 0.520201 2.325137
v -0.426781 0.984296 1.326983
v -0.277524 1.485704 1.506558
v -0.426781 0.984296 1.326983
v -0.559712 1.488037 1.082109
v 0.569040 1.931142 -0.981828
v 0.149256 0.818714 -1.124088
v 0.503740 0.786064 -0.923525
v 0.128267 1.152210 -1.152074
v 0.149256 0.818714 -1.124088
v 0.569040 1.931142 -0.981828
v 0.128267 1.152210 -1.152074
v 0.000000 0.832707 -1.140413
v 0.149256 0.818714 -1.124088
v 0.000000 1.119560 -1.163734
v 0.000000 0.832707 -1.140413
v 0.128267 1.152210 -1.152074
v -0.000001 2.201669 -1.075113
v 0.443105 2.553821 -0.678651
v -0.000001 2.675092 -0.739286
v 0.597026 2.320607 -0.876882
v 0.443105 2.553821 -0.678651
v -0.000001 2.201669 -1.075113
v 0.000000 0.429248 -0.965503
v 0.706636 0.585501 -0.876882
v 0.000000 0.753414 -1.271012
v 0.466426 0.380273 -0.711301
v 0.706636 0.585501 -0.876882
v 0.000000 0.429248 -0.965503
v 0.503740 0.786064 -0.923525
v 0.706636 0.585501 -0.876882
v 0.953842 0.828042 -0.646001
v 0.149256 0.818714 -1.124088
v 0.706636 0.585501 -0.876882
v 0.503740 0.786064 -0.923525
v 0.149256 0.818714 -1.124088
v 0.000000 0.753414 -1.271012
v 0.706636 0.585501 -0.876882
v 0.000000 0.832707 -1.140413
v 0.000000 0.753414 -1.271012
v 0.149256 0.818714 -1.124088
v 0.466426 0.380273 -0.711301
v 0.000000 0.429248 -0.965503
v 0.000000 0.317306 -0.321834
v 1.019142 0.797726 -0.095617
v 1.084441 1.243162 -0.527062
v 0.953842 0.828042 -0.646001
v 1.180059 1.163870 0.676318
v 1.084441 1.243162 -0.527062
v 1.019142 0.797726 -0.095617
v 1.180059 1.163870 0.676318
v 1.201048 2.066405 -0.293849
v 1.084441 1.243162 -0.527062
v 0.128267 1.152210 -1.152074
v 0.000000 1.217510 -1.215042
v 0.000000 1.119560 -1.163734
v 0.128267 1.152210 -1.152074
v 0.569040 1.931142 -0.981828
v 0.000000 1.217510 -1.215042
v 1.084441 1.243162 -0.527062
v 0.503740 0.786064 -0.923525
v 0.953842 0.828042 -0.646001
v 0.569040 1.931142 -0.981828
v 0.503740 0.786064 -0.923525
v 1.084441 1.243162 -0.527062
v 0.569040 1.931142 -0.981828
v 1.103098 2.110715 -0.576037
v 0.597026 2.320607 -0.876882
v 1.084441 1.243162 -0.527062
v 1.103098 2.110715 -0.576037
v 0.569040 1.931142 -0.981828
v 0.597026 2.320607 -0.876882
v -0.000001 1.732910 -1.261684
v 0.569040 1.931142 -0.981828
v -0.000001 2.201669 -1.075113
v -0.000001 1.732910 -1.261684
v 0.597026 2.320607 -0.876882
v 0.706636 0.585501 -0.876882
v 1.019142 0.797726 -0.095617
v 0.953842 0.828042 -0.646001
v 0.664657 0.429249 -0.240210
v 1.019142 0.797726 -0.095617
v 0.706636 0.585501 -0.876882
v 0.466426 0.380273 -0.711301
v 0.664657 0.429249 -0.240210
v 0.706636 0.585501 -0.876882
v 0.000000 0.317306 -0.321834
v 0.664657 0.429249 -0.240210
v 0.466426 0.380273 -0.711301
v 1.103098 2.110715 -0.576037
v 1.201048 2.066405 -0.293849
v 0.597026 2.320607 -0.876882
v 1.201048 2.066405 -0.293849
v 0.443105 2.553821 -0.678651
v 0.597026 2.320607 -0.876882
v 1.180059 1.163870 0.676318
v 1.019142 0.797726 -0.095617
v 0.664657 0.429249 -0.240210
v 1.084441 1.243162 -0.527062
v 1.201048 2.066405 -0.293849
v 1.103098 2.110715 -0.576037
v 0.000000 1.217510 -1.215042
v 0.569040 1.931142 -0.981828
v -0.000001 1.732910 -1.261684
v 1.201048 2.066405 -0.293849
v 1.166066 3.162508 -0.566709
v 0.443105 2.553821 -0.678651
v -0.000001 3.057561 1.483236
v 0.627343 2.817352 0.606355
v 0.424448 2.908305 1.487900
v -0.000001 3.052897 0.634340
v 0.627343 2.817352 0.606355
v -0.000001 3.057561 1.483236
v -0.000001 3.052897 0.634340
v 0.718296 2.810356 0.158585
v 0.627343 2.817352 0.606355
v -0.000001 2.940955 0.083956
v 0.718296 2.810356 0.158585
v -0.000001 3.052897 0.634340
v -0.000001 2.940955 0.083956
v 0.443105 2.553821 -0.678651
v 0.718296 2.810356 0.158585
v -0.000001 2.675092 -0.739286
v 0.443105 2.553821 -0.678651
v -0.000001 2.940955 0.083956
v 1.243026 2.245979 1.520550
v 0.613350 2.406897 0.932853
v 0.627343 2.817352 0.606355
v 0.557379 1.488037 1.082109
v 0.613350 2.406897 0.932853
v 1.243026 2.245979 1.520550
v 0.557379 1.488037 1.082109
v -0.000001 2.047749 1.161402
v 0.613350 2.406897 0.932853
v 0.275191 1.485704 1.506558
v -0.000001 2.047749 1.161402
v 0.557379 1.488037 1.082109
v 0.000000 0.317306 -0.321834
v 0.254203 0.314973 0.457098
v 0.664657 0.429249 -0.240210
v 0.000000 0.284656 0.475755
v 0.254203 0.314973 0.457098
v 0.000000 0.317306 -0.321834
v 0.000000 0.284656 0.475755
v -0.000001 0.646136 1.098434
v 0.254203 0.314973 0.457098
v 1.163734 0.692779 0.545719
v 1.240694 -0.013856 1.774754
v 1.259352 0.800057 1.149741
v 0.254203 0.314973 0.457098
v 1.240694 -0.013856 1.774754
v 1.163734 0.692779 0.545719
v 0.254203 0.314973 0.457098
v 0.464094 1.070584 1.124088
v 1.240694 -0.013856 1.774754
v -0.000001 0.646136 1.098434
v 0.464094 1.070584 1.124088
v 0.254203 0.314973 0.457098
v 0.424448 0.984296 1.326983
v 0.557379 1.488037 1.082109
v 0.464094 1.070584 1.124088
v 1.513553 1.341112 1.375958
v 1.201048 2.066405 -0.293849
v 1.180059 1.163870 0.676318
v 1.243026 2.245979 1.520550
v 1.201048 2.066405 -0.293849
v 1.513553 1.341112 1.375958
v 1.243026 2.245979 1.520550
v 0.627343 2.817352 0.606355
v 1.201048 2.066405 -0.293849
v 1.180059 1.163870 0.676318
v 0.464094 1.070584 1.124088
v 0.557379 1.488037 1.082109
v 1.259352 0.800057 1.149741
v 0.464094 1.070584 1.124088
v 1.180059 1.163870 0.676318
v 1.259352 0.800057 1.149741
v 1.240694 -0.013856 1.774754
v 0.464094 1.070584 1.124088
v -0.000001 2.707742 2.597996
v -0.000001 3.057561 1.483236
v 0.424448 2.908305 1.487900
v 0.424448 2.908305 1.487900
v -0.000001 2.047749 1.161402
v -0.000001 2.707742 2.597996
v 0.613350 2.406897 0.932853
v -0.000001 2.047749 1.161402
v 0.424448 2.908305 1.487900
v 0.557379 1.488037 1.082109
v 1.513553 1.341112 1.375958
v 1.180059 1.163870 0.676318
v 1.578853 1.371430 2.432415
v 1.513553 1.341112 1.375958
v 0.557379 1.488037 1.082109
v 1.201048 2.066405 -0.293849
v 0.718296 2.810356 0.158585
v 1.166066 3.162508 -0.566709
v 0.627343 2.817352 0.606355
v 0.718296 2.810356 0.158585
v 1.201048 2.066405 -0.293849
v 1.259352 0.800057 1.149741
v 1.180059 1.163870 0.676318
v 1.163734 0.692779 0.545719
v 1.180059 1.163870 0.676318
v 0.664657 0.429249 -0.240210
v 1.163734 0.692779 0.545719
v 0.613350 2.406897 0.932853
v 0.424448 2.908305 1.487900
v 0.627343 2.817352 0.606355
v 1.243026 2.245979 1.520550
v 1.513553 1.341112 1.375958
v 1.578853 1.371430 2.432415
v 0.557379 1.488037 1.082109
v 1.243026 2.245979 1.520550
v 1.578853 1.371430 2.432415
v 0.254203 0.314973 0.457098
v 1.163734 0.692779 0.545719
v 0.664657 0.429249 -0.240210
v 0.443105 2.553821 -0.678651
v 1.166066 3.162508 -0.566709
v 0.718296 2.810356 0.158585
v -0.000001 1.658282 1.569526
v 0.275191 1.485704 1.506558
v -0.000001 0.520201 2.325137
v -0.000001 1.658282 1.569526
v -0.000001 2.047749 1.161402
v 0.275191 1.485704 1.506558
v 0.424448 0.984296 1.326983
v -0.000001 0.646136 1.098434
v -0.000001 0.520201 2.325137
v 0.424448 0.984296 1.326983
v 0.464094 1.070584 1.124088
v -0.000001 0.646136 1.098434
v 0.275191 1.485704 1.506558
v 0.424448 0.984296 1.326983
v -0.000001 0.520201 2.325137
v 0.275191 1.485704 1.506558
v 0.557379 1.488037 1.082109
v 0.424448 0.984296 1.326983
v 1.198717 -2.761110 -1.184723
v 0.909532 -2.369312 -1.170730
v 0.993489 -2.758778 -1.462247
v 0.965503 -2.014827 -0.104946
v 0.909532 -2.369312 -1.170730
v 1.198717 -2.761110 -1.184723
v 0.965503 -2.014827 -0.104946
v 0.529394 -1.779282 0.165582
v 0.909532 -2.369312 -1.170730
v 0.760275 -2.056806 0.384802
v 0.529394 -1.779282 0.165582
v 0.965503 -2.014827 -0.104946
v 0.760275 -2.056806 0.384802
v 0.396462 -2.159420 0.599358
v 0.529394 -1.779282 0.165582
v 0.844232 -2.756446 0.557380
v 0.396462 -2.159420 0.599358
v 0.760275 -2.056806 0.384802
v 0.844232 -2.756446 0.557380
v 0.375473 -2.756446 0.697308
v 0.396462 -2.159420 0.599358
v 0.037314 -2.758778 0.377806
v 0.396462 -2.159420 0.599358
v 0.375473 -2.756446 0.697308
v 0.205227 -2.059138 0.256535
v 0.396462 -2.159420 0.599358
v 0.037314 -2.758778 0.377806
v 0.205227 -2.059138 0.256535
v 0.529394 -1.779282 0.165582
v 0.396462 -2.159420 0.599358
v 0.293848 -2.014827 -0.263531
v 0.529394 -1.779282 0.165582
v 0.205227 -2.059138 0.256535
v 0.293848 -2.014827 -0.263531
v 0.909532 -2.369312 -1.170730
v 0.529394 -1.779282 0.165582
v 0.662326 -2.758778 -1.319987
v 0.909532 -2.369312 -1.170730
v 0.293848 -2.014827 -0.263531
v 0.662326 -2.758778 -1.319987
v 0.993489 -2.758778 -1.462247
v 0.909532 -2.369312 -1.170730
v 0.662326 -2.758778 -1.319987
v 1.198717 -2.761110 -1.184723
v 0.993489 -2.758778 -1.462247
v 1.254687 -2.761110 -0.417451
v 1.198717 -2.761110 -1.184723
v 0.662326 -2.758778 -1.319987
v 0.219220 -2.761110 -0.655329
v 0.293848 -2.014827 -0.263531
v 0.037314 -2.758778 0.377806
v 0.293848 -2.014827 -0.263531
v 0.205227 -2.059138 0.256535
v 0.037314 -2.758778 0.377806
v 0.844232 -2.756446 0.557380
v 1.254687 -2.761110 -0.417451
v 0.037314 -2.758778 0.377806
v 1.254687 -2.761110 -0.417451
v 0.219220 -2.761110 -0.655329
v 0.037314 -2.758778 0.377806
v 0.760275 -2.056806 0.384802
v 0.965503 -2.014827 -0.104946
v 0.844232 -2.756446 0.557380
v 0.965503 -2.014827 -0.104946
v 1.254687 -2.761110 -0.417451
v 0.844232 -2.756446 0.557380
v 1.198717 -2.761110 -1.184723
v 1.254687 -2.761110 -0.417451
v 0.965503 -2.014827 -0.104946
v 1.254687 -2.761110 -0.417451
v 0.662326 -2.758778 -1.319987
v 0.219220 -2.761110 -0.655329
v 0.662326 -2.758778 -1.319987
v 0.293848 -2.014827 -0.263531
v 0.219220 -2.761110 -0.655329
v 0.844232 -2.756446 0.557380
v 0.037314 -2.758778 0.377806
v 0.375473 -2.756446 0.697308
v -1.240695 -0.391662 0.214556
v -0.972499 -0.834767 0.396463
v -1.352637 -0.676183 0.163249
v -0.893207 -0.536255 0.431445
v -0.972499 -0.834767 0.396463
v -1.240695 -0.391662 0.214556
v -0.893207 -0.536255 0.431445
v -0.729958 -0.858089 -0.009329
v -0.972499 -0.834767 0.396463
v -0.671654 -0.559576 0.055971
v -0.729958 -0.858089 -0.009329
v -0.893207 -0.536255 0.431445
v -0.671654 -0.559576 0.055971
v -1.100767 -0.664523 -0.237878
v -0.729958 -0.858089 -0.009329
v -1.009814 -0.382334 -0.151588
v -1.100767 -0.664523 -0.237878
v -0.671654 -0.559576 0.055971
v -1.009814 -0.382334 -0.151588
v -1.352637 -0.676183 0.163249
v -1.100767 -0.664523 -0.237878
v -1.240695 -0.391662 0.214556
v -1.352637 -0.676183 0.163249
v -1.009814 -0.382334 -0.151588
v -0.508405 0.168050 -0.221553
v -0.611019 0.259002 -0.240210
v -0.769604 -0.160782 0.004664
v -0.503741 0.282323 -0.198231
v -0.611019 0.259002 -0.240210
v -0.508405 0.168050 -0.221553
v -0.503741 0.282323 -0.198231
v -0.559712 0.247342 -0.088621
v -0.611019 0.259002 -0.240210
v -0.508405 0.168050 -0.221553
v -0.559712 0.247342 -0.088621
v -0.503741 0.282323 -0.198231
v -0.508405 0.168050 -0.221553
v -0.832572 -0.123468 0.137596
v -0.559712 0.247342 -0.088621
v -0.769604 -0.160782 0.004664
v -0.832572 -0.123468 0.137596
v -0.508405 0.168050 -0.221553
v -0.769604 -0.160782 0.004664
v -1.014478 -0.636537 0.216889
v -0.832572 -0.123468 0.137596
v -0.935185 -0.683179 0.069964
v -1.014478 -0.636537 0.216889
v -0.769604 -0.160782 0.004664
v -0.935185 -0.683179 0.069964
v -1.091438 -0.629540 0.062968
v -1.014478 -0.636537 0.216889
v -0.893207 -0.121135 0.000000
v -1.091438 -0.629540 0.062968
v -0.935185 -0.683179 0.069964
v -0.832572 -0.123468 0.137596
v -0.893207 -0.121135 0.000000
v -0.559712 0.247342 -0.088621
v -1.014478 -0.636537 0.216889
v -0.893207 -0.121135 0.000000
v -0.832572 -0.123468 0.137596
v -1.014478 -0.636537 0.216889
v -1.091438 -0.629540 0.062968
v -0.893207 -0.121135 0.000000
v -0.769604 -0.160782 0.004664
v -0.893207 -0.121135 0.000000
v -0.935185 -0.683179 0.069964
v -0.611019 0.259002 -0.240210
v -0.893207 -0.121135 0.000000
v -0.769604 -0.160782 0.004664
v -1.240695 -0.391662 0.214556
v -1.009814 -0.382334 -0.151588
v -0.893207 -0.536255 0.431445
v -1.009814 -0.382334 -0.151588
v -0.671654 -0.559576 0.055971
v -0.893207 -0.536255 0.431445
v -1.100767 -0.664523 -0.237878
v -1.352637 -0.676183 0.163249
v -0.729958 -0.858089 -0.009329
v -1.352637 -0.676183 0.163249
v -0.972499 -0.834767 0.396463
v -0.729958 -0.858089 -0.009329
v -0.893207 -0.121135 0.000000
v -0.611019 0.259002 -0.240210
v -0.559712 0.247342 -0.088621
v -1.198717 -0.804451 0.403459
v -1.406276 -1.310523 0.377806
v -1.541541 -1.154271 -0.249538
v -1.198717 -0.804451 0.403459
v -0.974832 -0.613216 0.116606
v -0.764939 -0.988688 0.263531
v -0.734622 -1.450451 0.186571
v -0.764939 -0.988688 0.263531
v -0.886211 -0.879079 -0.223885
v -1.308327 -0.692508 -0.118939
v -1.271013 -1.401477 -0.382470
v -0.916528 -1.294199 -0.349820
v -1.142745 -1.557730 0.254203
v -0.734622 -1.450451 0.186571
v -0.916528 -1.294199 -0.349820
v -1.406276 -1.310523 0.377806
v -1.142745 -1.557730 0.254203
v -1.271013 -1.401477 -0.382470
v -0.734622 -1.450451 0.186571
v -1.142745 -1.557730 0.254203
v -1.198717 -0.804451 0.403459
v -0.886211 -0.879079 -0.223885
v -0.974832 -0.613216 0.116606
v -1.308327 -0.692508 -0.118939
v -1.308327 -0.692508 -0.118939
v -0.974832 -0.613216 0.116606
v -1.198717 -0.804451 0.403459
v -0.764939 -0.988688 0.263531
v -0.974832 -0.613216 0.116606
v -0.886211 -0.879079 -0.223885
v -1.308327 -0.692508 -0.118939
v -1.198717 -0.804451 0.403459
v -1.541541 -1.154271 -0.249538
v -0.916528 -1.294199 -0.349820
v -0.734622 -1.450451 0.186571
v -0.886211 -0.879079 -0.223885
v -1.308327 -0.692508 -0.118939
v -0.916528 -1.294199 -0.349820
v -0.886211 -0.879079 -0.223885
v -1.541541 -1.154271 -0.249538
v -1.271013 -1.401477 -0.382470
v -1.308327 -0.692508 -0.118939
v -1.271013 -1.401477 -0.382470
v -1.142745 -1.557730 0.254203
v -0.916528 -1.294199 -0.349820
v -1.541541 -1.154271 -0.249538
v -1.406276 -1.310523 0.377806
v -1.271013 -1.401477 -0.382470
v -1.406276 -1.310523 0.377806
v -1.198717 -0.804451 0.403459
v -1.142745 -1.557730 0.254203
v -0.764939 -0.988688 0.263531
v -0.734622 -1.450451 0.186571
v -1.198717 -0.804451 0.403459
v 0.555048 -1.574055 0.048975
v 0.286852 -1.172927 -0.181906
v 0.338159 -1.557729 -0.100281
v 0.454766 -1.175259 -0.065300
v 0.286852 -1.172927 -0.181906
v 0.555048 -1.574055 0.048975
v 0.454766 -1.175259 -0.065300
v 0.219220 -0.846429 -0.226217
v 0.286852 -1.172927 -0.181906
v 0.356816 -0.585230 -0.130599
v 0.219220 -0.846429 -0.226217
v 0.454766 -1.175259 -0.065300
v 0.352152 -1.585715 0.153921
v 0.454766 -1.175259 -0.065300
v 0.555048 -1.574055 0.048975
v 0.305510 -1.226565 0.016325
v 0.454766 -1.175259 -0.065300
v 0.352152 -1.585715 0.153921
v 0.305510 -1.226565 0.016325
v 0.356816 -0.585230 -0.130599
v 0.454766 -1.175259 -0.065300
v 0.188903 -0.804450 -0.048974
v 0.356816 -0.585230 -0.130599
v 0.305510 -1.226565 0.016325
v 0.188903 -0.804450 -0.048974
v 0.286852 -1.172927 -0.181906
v 0.219220 -0.846429 -0.226217
v 0.305510 -1.226565 0.016325
v 0.286852 -1.172927 -0.181906
v 0.188903 -0.804450 -0.048974
v 0.305510 -1.226565 0.016325
v 0.352152 -1.585715 0.153921
v 0.286852 -1.172927 -0.181906
v 0.286852 -1.172927 -0.181906
v 0.352152 -1.585715 0.153921
v 0.338159 -1.557729 -0.100281
v 0.356816 -0.585230 -0.130599
v 0.186571 -0.398660 -0.184238
v 0.219220 -0.846429 -0.226217
v 0.188903 -0.804450 -0.048974
v 0.186571 -0.398660 -0.184238
v 0.356816 -0.585230 -0.130599
v 0.188903 -0.804450 -0.048974
v 0.219220 -0.846429 -0.226217
v 0.186571 -0.398660 -0.184238
v -0.179574 -1.578719 -0.030318
v -0.146924 -1.935535 -0.044311
v -0.384802 -1.923874 0.422116
v -0.382470 -1.564726 0.370809
v -0.179574 -1.578719 -0.030318
v -0.384802 -1.923874 0.422116
v -0.382470 -1.564726 0.370809
v -0.384802 -1.923874 0.422116
v -0.876882 -1.905217 0.153921
v -0.799922 -1.541404 0.139928
v -0.382470 -1.564726 0.370809
v -0.876882 -1.905217 0.153921
v -0.799922 -1.541404 0.139928
v -0.876882 -1.905217 0.153921
v -0.592362 -1.914546 -0.312506
v -0.559712 -1.553065 -0.258867
v -0.799922 -1.541404 0.139928
v -0.592362 -1.914546 -0.312506
v -0.559712 -1.553065 -0.258867
v -0.592362 -1.914546 -0.312506
v -0.146924 -1.935535 -0.044311
v -0.179574 -1.578719 -0.030318
v -0.559712 -1.553065 -0.258867
v -0.146924 -1.935535 -0.044311
v -0.559712 -1.553065 -0.258867
v -0.179574 -1.578719 -0.030318
v -0.799922 -1.541404 0.139928
v -0.799922 -1.541404 0.139928
v -0.179574 -1.578719 -0.030318
v -0.382470 -1.564726 0.370809
v -0.384802 -1.923874 0.422116
v -0.146924 -1.935535 -0.044311
v -0.876882 -1.905217 0.153921
v -0.876882 -1.905217 0.153921
v -0.146924 -1.935535 -0.044311
v -0.592362 -1.914546 -0.312506
v -1.201048 -2.761110 -1.184723
v -0.995820 -2.758778 -1.462247
v -0.911864 -2.369312 -1.170730
v -0.967835 -2.014828 -0.104946
v -1.201048 -2.761110 -1.184723
v -0.911864 -2.369312 -1.170730
v -0.967835 -2.014828 -0.104946
v -0.911864 -2.369312 -1.170730
v -0.531726 -1.779282 0.165582
v -0.762608 -2.056806 0.384802
v -0.967835 -2.014828 -0.104946
v -0.531726 -1.779282 0.165582
v -0.762608 -2.056806 0.384802
v -0.531726 -1.779282 0.165582
v -0.398795 -2.159420 0.599358
v -0.846564 -2.756446 0.557380
v -0.762608 -2.056806 0.384802
v -0.398795 -2.159420 0.599358
v -0.846564 -2.756446 0.557380
v -0.398795 -2.159420 0.599358
v -0.377806 -2.756446 0.697308
v -0.039646 -2.758778 0.377806
v -0.377806 -2.756446 0.697308
v -0.398795 -2.159420 0.599358
v -0.207560 -2.059138 0.256535
v -0.039646 -2.758778 0.377806
v -0.398795 -2.159420 0.599358
v -0.207560 -2.059138 0.256535
v -0.398795 -2.159420 0.599358
v -0.531726 -1.779282 0.165582
v -0.296181 -2.014827 -0.263531
v -0.207560 -2.059138 0.256535
v -0.531726 -1.779282 0.165582
v -0.296181 -2.014827 -0.263531
v -0.531726 -1.779282 0.165582
v -0.911864 -2.369312 -1.170730
v -0.664658 -2.758778 -1.319987
v -0.296181 -2.014827 -0.263531
v -0.911864 -2.369312 -1.170730
v -0.664658 -2.758778 -1.319987
v -0.911864 -2.369312 -1.170730
v -0.995820 -2.758778 -1.462247
v -0.664658 -2.758778 -1.319987
v -0.995820 -2.758778 -1.462247
v -1.201048 -2.761110 -1.184723
v -1.257020 -2.761110 -0.417451
v -0.664658 -2.758778 -1.319987
v -1.201048 -2.761110 -1.184723
v -0.221553 -2.761110 -0.655329
v -0.039646 -2.758778 0.377806
v -0.296181 -2.014827 -0.263531
v -0.296181 -2.014827 -0.263531
v -0.039646 -2.758778 0.377806
v -0.207560 -2.059138 0.256535
v -0.846564 -2.756446 0.557380
v -0.039646 -2.758778 0.377806
v -1.257020 -2.761110 -0.417451
v -1.257020 -2.761110 -0.417451
v -0.039646 -2.758778 0.377806
v -0.221553 -2.761110 -0.655329
v -0.762608 -2.056806 0.384802
v -0.846564 -2.756446 0.557380
v -0.967835 -2.014828 -0.104946
v -0.967835 -2.014828 -0.104946
v -0.846564 -2.756446 0.557380
v -1.257020 -2.761110 -0.417451
v -1.201048 -2.761110 -1.184723
v -0.967835 -2.014828 -0.104946
v -1.257020 -2.761110 -0.417451
v -1.257020 -2.761110 -0.417451
v -0.221553 -2.761110 -0.655329
v -0.664658 -2.758778 -1.319987
v -0.664658 -2.758778 -1.319987
v -0.221553 -2.761110 -0.655329
v -0.296181 -2.014827 -0.263531
v -0.846564 -2.756446 0.557380
v -0.377806 -2.756446 0.697308
v -0.039646 -2.758778 0.377806
v -0.557380 -1.574055 0.048975
v -0.340492 -1.557729 -0.100281
v -0.289185 -1.172927 -0.181906
v -0.457098 -1.175259 -0.065300
v -0.557380 -1.574055 0.048975
v -0.289185 -1.172927 -0.181906
v -0.457098 -1.175259 -0.065300
v -0.289185 -1.172927 -0.181906
v -0.221553 -0.846429 -0.226217
v -0.359148 -0.585230 -0.130599
v -0.457098 -1.175259 -0.065300
v -0.221553 -0.846429 -0.226217
v -0.354484 -1.585715 0.153921
v -0.557380 -1.574055 0.048975
v -0.457098 -1.175259 -0.065300
v -0.307841 -1.226565 0.016325
v -0.354484 -1.585715 0.153921
v -0.457098 -1.175259 -0.065300
v -0.307841 -1.226565 0.016325
v -0.457098 -1.175259 -0.065300
v -0.359148 -0.585230 -0.130599
v -0.191235 -0.804450 -0.048974
v -0.307841 -1.226565 0.016325
v -0.359148 -0.585230 -0.130599
v -0.191235 -0.804450 -0.048974
v -0.221553 -0.846429 -0.226217
v -0.289185 -1.172927 -0.181906
v -0.307841 -1.226565 0.016325
v -0.191235 -0.804450 -0.048974
v -0.289185 -1.172927 -0.181906
v -0.307841 -1.226565 0.016325
v -0.289185 -1.172927 -0.181906
v -0.354484 -1.585715 0.153921
v -0.289185 -1.172927 -0.181906
v -0.340492 -1.557729 -0.100281
v -0.354484 -1.585715 0.153921
v -0.359148 -0.585230 -0.130599
v -0.221553 -0.846429 -0.226217
v -0.188903 -0.398660 -0.184238
v -0.191235 -0.804450 -0.048974
v -0.359148 -0.585230 -0.130599
v -0.188903 -0.398660 -0.184238
v -0.191235 -0.804450 -0.048974
v -0.188903 -0.398660 -0.184238
v -0.221553 -0.846429 -0.226217
v 1.238362 -0.391662 0.214556
v 1.350304 -0.676182 0.163250
v 0.970167 -0.834767 0.396463
v 0.890875 -0.536255 0.431445
v 1.238362 -0.391662 0.214556
v 0.970167 -0.834767 0.396463
v 0.890875 -0.536255 0.431445
v 0.970167 -0.834767 0.396463
v 0.727625 -0.858089 -0.009329
v 0.669322 -0.559576 0.055971
v 0.890875 -0.536255 0.431445
v 0.727625 -0.858089 -0.009329
v 0.669322 -0.559576 0.055971
v 0.727625 -0.858089 -0.009329
v 1.098434 -0.664522 -0.237878
v 1.007481 -0.382334 -0.151588
v 0.669322 -0.559576 0.055971
v 1.098434 -0.664522 -0.237878
v 1.007481 -0.382334 -0.151588
v 1.098434 -0.664522 -0.237878
v 1.350304 -0.676182 0.163250
v 1.238362 -0.391662 0.214556
v 1.007481 -0.382334 -0.151588
v 1.350304 -0.676182 0.163250
v 1.238362 -0.391662 0.214556
v 0.890875 -0.536255 0.431445
v 1.007481 -0.382334 -0.151588
v 1.007481 -0.382334 -0.151588
v 0.890875 -0.536255 0.431445
v 0.669322 -0.559576 0.055971
v 1.098434 -0.664522 -0.237878
v 0.727625 -0.858089 -0.009329
v 1.350304 -0.676182 0.163250
v 1.350304 -0.676182 0.163250
v 0.727625 -0.858089 -0.009329
v 0.970167 -0.834767 0.396463
v 1.196384 -0.804450 0.403459
v 1.539208 -1.154271 -0.249538
v 1.403944 -1.310523 0.377806
v 1.196384 -0.804450 0.403459
v 0.762607 -0.988688 0.263531
v 0.972499 -0.613216 0.116607
v 0.732290 -1.450451 0.186571
v 0.883878 -0.879079 -0.223885
v 0.762607 -0.988688 0.263531
v 1.305994 -0.692508 -0.118939
v 0.914196 -1.294199 -0.349820
v 1.268680 -1.401476 -0.382469
v 1.140413 -1.557729 0.254203
v 0.914196 -1.294199 -0.349820
v 0.732290 -1.450451 0.186571
v 1.403944 -1.310523 0.377806
v 1.268680 -1.401476 -0.382469
v 1.140413 -1.557729 0.254203
v 0.732290 -1.450451 0.186571
v 1.196384 -0.804450 0.403459
v 1.140413 -1.557729 0.254203
v 0.883878 -0.879079 -0.223885
v 1.305994 -0.692508 -0.118939
v 0.972499 -0.613216 0.116607
v 1.305994 -0.692508 -0.118939
v 1.196384 -0.804450 0.403459
v 0.972499 -0.613216 0.116607
v 0.762607 -0.988688 0.263531
v 0.883878 -0.879079 -0.223885
v 0.972499 -0.613216 0.116607
v 1.305994 -0.692508 -0.118939
v 1.539208 -1.154271 -0.249538
v 1.196384 -0.804450 0.403459
v 0.914196 -1.294199 -0.349820
v 0.883878 -0.879079 -0.223885
v 0.732290 -1.450451 0.186571
v 1.305994 -0.692508 -0.118939
v 0.883878 -0.879079 -0.223885
v 0.914196 -1.294199 -0.349820
v 1.539208 -1.154271 -0.249538
v 1.305994 -0.692508 -0.118939
v 1.268680 -1.401476 -0.382469
v 1.268680 -1.401476 -0.382469
v 0.914196 -1.294199 -0.349820
v 1.140413 -1.557729 0.254203
v 1.539208 -1.154271 -0.249538
v 1.268680 -1.401476 -0.382469
v 1.403944 -1.310523 0.377806
v 1.403944 -1.310523 0.377806
v 1.140413 -1.557729 0.254203
v 1.196384 -0.804450 0.403459
v 0.762607 -0.988688 0.263531
v 1.196384 -0.804450 0.403459
v 0.732290 -1.450451 0.186571
v 0.177242 -1.578719 -0.030318
v 0.382469 -1.923874 0.422116
v 0.144592 -1.935535 -0.044311
v 0.380138 -1.564726 0.370809
v 0.382469 -1.923874 0.422116
v 0.177242 -1.578719 -0.030318
v 0.380138 -1.564726 0.370809
v 0.874550 -1.905217 0.153921
v 0.382469 -1.923874 0.422116
v 0.797589 -1.541404 0.139928
v 0.874550 -1.905217 0.153921
v 0.380138 -1.564726 0.370809
v 0.797589 -1.541404 0.139928
v 0.590029 -1.914546 -0.312506
v 0.874550 -1.905217 0.153921
v 0.557380 -1.553065 -0.258867
v 0.590029 -1.914546 -0.312506
v 0.797589 -1.541404 0.139928
v 0.557380 -1.553065 -0.258867
v 0.144592 -1.935535 -0.044311
v 0.590029 -1.914546 -0.312506
v 0.177242 -1.578719 -0.030318
v 0.144592 -1.935535 -0.044311
v 0.557380 -1.553065 -0.258867
v 0.557380 -1.553065 -0.258867
v 0.797589 -1.541404 0.139928
v 0.177242 -1.578719 -0.030318
v 0.797589 -1.541404 0.139928
v 0.380138 -1.564726 0.370809
v 0.177242 -1.578719 -0.030318
v 0.382469 -1.923874 0.422116
v 0.874550 -1.905217 0.153921
v 0.144592 -1.935535 -0.044311
v 0.874550 -1.905217 0.153921
v 0.590029 -1.914546 -0.312506
v 0.144592 -1.935535 -0.044311
vn 0.3554 -0.0702 -0.9321
vn 0.4407 -0.3740 -0.8160
vn 0.3194 -0.1306 -0.9386
vn 0.2664 0.7415 -0.6158
vn 0.0005 0.6424 -0.7664
vn 0.0006 0.8372 -0.5469
vn 0.2709 0.9601 -0.0694
vn 0.0007 0.8372 -0.5469
vn 0.0006 0.8373 -0.5468
vn 0.0006 0.9378 -0.3471
vn 0.0006 -0.5160 -0.8566
vn 0.3858 -0.6521 -0.6527
vn 0.3858 -0.6521 -0.6526
vn 0.0004 -0.7309 -0.6825
vn -0.4218 0.1169 -0.8991
vn -0.5235 0.1087 -0.8451
vn -0.4981 0.0031 -0.8671
vn -0.2567 -0.1435 -0.9558
vn 0.0009 -0.0792 -0.9969
vn -0.2566 -0.1435 -0.9558
vn 0.0008 -0.0792 -0.9969
vn 0.0014 -0.2768 -0.9609
vn -0.3107 0.7929 -0.5242
vn 0.0007 0.8053 -0.5929
vn 0.0003 0.5527 -0.8334
vn 0.0004 0.5528 -0.8333
vn -0.3260 0.3738 -0.8683
vn -0.2399 -0.7180 -0.6534
vn 0.0003 -0.6858 -0.7277
vn 0.0002 -0.8538 -0.5206
vn 0.0001 -0.8538 -0.5206
vn -0.2569 -0.9371 -0.2361
vn -0.4965 0.3522 -0.7934
vn -0.5025 0.1893 -0.8436
vn -0.5235 0.1088 -0.8451
vn -0.5235 0.1089 -0.8450
vn -0.3382 0.6796 -0.6510
vn -0.4965 0.3522 -0.7933
vn -0.4218 0.1170 -0.8991
vn -0.3381 0.6797 -0.6510
vn -0.1336 0.8471 -0.5143
vn 0.0010 0.8548 -0.5190
vn 0.0003 -0.8538 -0.5206
vn 0.0003 -0.9982 -0.0600
vn -0.2568 -0.9372 -0.2361
vn -0.9736 -0.2042 -0.1024
vn -0.8748 -0.4668 -0.1295
vn -0.8489 -0.5258 -0.0535
vn -0.9224 -0.3782 -0.0788
vn -0.9515 -0.1771 -0.2518
vn -0.9736 -0.2041 -0.1024
vn -0.9224 -0.3781 -0.0788
vn -0.2317 -0.2723 -0.9339
vn 0.0013 -0.2769 -0.9609
vn -0.2317 -0.2722 -0.9339
vn -0.5235 0.1087 -0.8450
vn -0.5025 0.1892 -0.8436
vn -0.6953 -0.0234 -0.7183
vn -0.6954 -0.0235 -0.7183
vn -0.4982 0.0031 -0.8671
vn -0.5908 0.0610 -0.8045
vn -0.3261 0.3737 -0.8683
vn -0.4981 0.0032 -0.8671
vn 0.0006 0.1816 -0.9834
vn -0.3261 0.3736 -0.8684
vn 0.0007 0.1816 -0.9834
vn -0.3259 0.3737 -0.8684
vn 0.0004 0.5527 -0.8334
vn -0.8488 -0.5259 -0.0535
vn -0.8747 -0.4670 -0.1295
vn -0.6926 -0.7089 -0.1335
vn -0.8489 -0.5259 -0.0535
vn -0.4862 -0.8736 -0.0202
vn -0.4861 -0.8737 -0.0202
vn -0.6925 -0.7090 -0.1335
vn -0.2570 -0.9371 -0.2361
vn -0.4861 -0.8737 -0.0201
vn -0.2569 -0.9372 -0.2360
vn 0.0002 -0.9982 -0.0599
vn -0.5157 0.8401 -0.1680
vn -0.3753 0.9268 0.0153
vn -0.6248 0.7023 -0.3411
vn -0.5158 0.8401 -0.1681
vn -0.9514 -0.1771 -0.2519
vn -0.9421 -0.0391 -0.3331
vn -0.6954 -0.0235 -0.7182
vn -0.3264 -0.2185 -0.9196
vn -0.5568 0.8303 0.0247
vn -0.3259 0.9360 0.1329
vn -0.3348 0.9383 0.0868
vn -0.5569 0.8302 0.0246
vn -0.1812 0.9795 -0.0876
vn -0.2537 0.9532 -0.1645
vn -0.2537 0.9532 -0.1647
vn 0.0004 0.9578 -0.2875
vn 0.0007 0.8054 -0.5928
vn 0.5835 0.3654 0.7253
vn 0.4883 0.5534 0.6747
vn 0.6395 0.3548 0.6821
vn 0.5836 0.3652 0.7253
vn 0.6395 0.3547 0.6821
vn 0.7006 0.2463 0.6697
vn -0.2729 0.1380 0.9521
vn -0.5945 0.6131 0.5203
vn -0.7822 0.3403 0.5219
vn -0.7122 0.3938 0.5811
vn -0.2866 -0.9335 0.2154
vn 0.0003 -0.9982 -0.0599
vn -0.2866 -0.9335 0.2155
vn 0.0006 -0.9708 0.2397
vn 0.1924 -0.8205 0.5382
vn -0.2866 -0.9335 0.2156
vn 0.0006 -0.9708 0.2398
vn -0.8203 -0.5605 -0.1137
vn -0.6212 -0.2204 -0.7520
vn 0.6298 -0.2185 -0.7454
vn -0.0000 0.9876 0.1570
vn -0.0000 0.9939 -0.1104
vn -0.0000 0.9105 0.4135
vn -0.0000 0.9876 0.1572
vn -0.9831 -0.1250 -0.1334
vn -0.9876 -0.0579 -0.1461
vn -0.9562 0.0041 -0.2926
vn -0.3761 -0.7929 -0.4794
vn -0.3924 -0.8947 -0.2134
vn 0.8038 -0.2523 0.5388
vn -0.5471 -0.6342 0.5463
vn -0.9730 -0.2072 0.1020
vn -0.8693 -0.4928 -0.0397
vn -0.8027 -0.5939 -0.0538
vn -0.9514 -0.1772 -0.2518
vn -0.9224 -0.3782 -0.0789
vn -0.8723 -0.3672 -0.3228
vn -0.8684 0.4912 -0.0687
vn -0.9538 0.2946 -0.0593
vn -0.9016 0.4272 -0.0686
vn -0.8683 0.4913 -0.0687
vn -0.9015 0.4272 -0.0686
vn -0.5331 -0.0341 0.8453
vn -0.2162 0.7001 0.6805
vn -0.2497 0.7875 0.5634
vn -0.1778 0.5968 0.7825
vn -0.2162 0.7000 0.6806
vn -0.3259 0.9360 0.1331
vn 0.0008 0.9541 0.2994
vn -0.7146 -0.5283 0.4585
vn -0.8342 -0.5011 0.2302
vn -0.7145 -0.5283 0.4586
vn -0.7145 -0.5284 0.4586
vn -0.5469 -0.5201 0.6560
vn 0.2072 -0.9586 0.1951
vn 0.2456 -0.9054 0.3464
vn 0.2073 -0.9586 0.1952
vn 0.2072 -0.9587 0.1950
vn 0.1633 -0.9858 0.0384
vn -0.8633 0.3259 0.3853
vn -0.7999 0.1689 0.5758
vn -0.8633 0.3260 0.3852
vn -0.9266 0.0703 -0.3694
vn -0.9876 -0.0578 -0.1461
vn -0.8174 0.1274 -0.5618
vn -0.9562 0.0041 -0.2927
vn -0.9265 0.0703 -0.3697
vn 0.8263 -0.5521 -0.1120
vn -0.9687 0.1334 0.2092
vn -0.9529 0.2957 -0.0674
vn -0.9016 0.4271 -0.0686
vn 0.6395 0.3548 0.6820
vn 0.7393 0.3288 0.5876
vn 0.7006 0.2464 0.6697
vn -0.3924 -0.8948 -0.2131
vn -0.3768 -0.9236 0.0704
vn 0.6417 0.7666 -0.0240
vn 0.1687 -0.4483 -0.8778
vn 0.2201 -0.4281 -0.8765
vn -0.3252 0.1763 -0.9291
vn 0.4892 0.8412 0.2303
vn 0.2706 0.9485 0.1645
vn -0.8625 -0.2121 0.4594
vn -0.8992 -0.1224 0.4201
vn -0.8490 -0.2489 0.4662
vn -0.8298 -0.2838 0.4804
vn -0.8625 -0.2122 0.4595
vn -0.8489 -0.2490 0.4662
vn -0.8299 -0.2838 0.4804
vn -0.8364 -0.2509 0.4874
vn -0.8439 -0.2152 0.4914
vn -0.8364 -0.2508 0.4874
vn -0.8342 -0.2002 0.5138
vn 0.3271 -0.9372 0.1210
vn -0.0020 -0.1237 -0.9923
vn -0.0000 -0.1235 -0.9923
vn 0.0396 -0.2419 -0.9695
vn -0.4189 0.0653 0.9057
vn -0.5005 0.1106 0.8586
vn -0.4783 0.1508 0.8651
vn -0.4067 0.1848 0.8947
vn -0.4189 0.0654 0.9057
vn 0.2365 0.9337 0.2690
vn 0.2117 0.9448 0.2500
vn 0.2709 0.9601 -0.0692
vn 0.0008 0.9545 0.2981
vn 0.2366 0.9336 0.2690
vn 0.2709 0.9601 -0.0693
vn 0.9754 0.1703 -0.1401
vn 0.9772 0.2008 -0.0685
vn 0.9546 0.2504 -0.1612
vn 0.9753 0.1704 -0.1402
vn 0.9896 0.0298 -0.1404
vn 0.9814 0.1697 -0.0895
vn 0.9754 0.1702 -0.1402
vn 0.9897 0.0296 -0.1403
vn 0.9897 0.0296 -0.1404
vn 0.9951 0.0027 -0.0990
vn 0.7681 0.5326 0.3554
vn 0.6681 0.6783 0.3059
vn 0.7733 0.5289 0.3497
vn 0.7682 0.5324 0.3555
vn 0.7734 0.5287 0.3497
vn 0.8373 0.3674 0.4049
vn 0.8227 0.3738 0.4283
vn 0.7682 0.5325 0.3554
vn 0.8373 0.3674 0.4050
vn 0.9256 0.3049 0.2243
vn 0.5022 -0.4096 0.7616
vn 0.5292 -0.7075 0.4684
vn 0.5309 -0.4825 0.6967
vn 0.4914 -0.2990 0.8180
vn 0.5022 -0.4095 0.7616
vn 0.8603 -0.4275 -0.2775
vn 0.3859 -0.6521 -0.6526
vn 0.8604 -0.4274 -0.2775
vn 0.9760 -0.1909 -0.1051
vn 0.9897 0.0295 -0.1404
vn 0.5714 -0.6124 0.5463
vn 0.5309 -0.4826 0.6966
vn -0.5315 0.2340 0.8141
vn -0.5029 0.1949 0.8421
vn -0.4783 0.1509 0.8651
vn -0.5006 0.1106 0.8586
vn 0.2049 -0.9786 -0.0171
vn 0.2861 -0.9568 0.0518
vn 0.2274 -0.9665 -0.1187
vn 0.2275 -0.9665 -0.1188
vn 0.0024 -0.9824 -0.1869
vn 0.0396 -0.2420 -0.9695
vn 0.0002 -0.1235 -0.9923
vn 0.0605 -0.3006 -0.9518
vn 0.0606 -0.3008 -0.9518
vn -0.1104 -0.9592 -0.2605
vn -0.0846 -0.9876 -0.1322
vn -0.0838 -0.9867 -0.1395
vn -0.0853 -0.9885 -0.1249
vn -0.0845 -0.9876 -0.1322
vn -0.1104 -0.9591 -0.2605
vn 0.6768 0.6802 0.2814
vn 0.4894 0.8411 0.2303
vn 0.7681 0.5327 0.3554
vn 0.8721 0.4848 -0.0668
vn 0.9814 0.1699 -0.0895
vn 0.2274 -0.9665 -0.1189
vn 0.0023 -0.9442 -0.3294
vn 0.0024 -0.9824 -0.1870
vn -0.1104 -0.9591 -0.2606
vn -0.1562 -0.8500 -0.5030
vn 0.2862 -0.9568 0.0519
vn 0.4350 -0.8951 0.0982
vn 0.5291 -0.7076 0.4684
vn -0.4398 -0.3739 -0.8166
vn -0.3542 -0.0703 -0.9325
vn -0.3183 -0.1307 -0.9389
vn 0.0004 0.6424 -0.7664
vn -0.2653 0.7416 -0.6162
vn 0.0005 0.8372 -0.5469
vn -0.2653 0.7417 -0.6161
vn -0.2726 0.8746 -0.4010
vn 0.0005 0.8373 -0.5468
vn 0.0004 0.9378 -0.3471
vn -0.4397 -0.3739 -0.8166
vn -0.3852 -0.6520 -0.6531
vn -0.3851 -0.6520 -0.6531
vn 0.0005 -0.5160 -0.8566
vn 0.0003 -0.7309 -0.6825
vn -0.3182 -0.1307 -0.9390
vn -0.4398 -0.3738 -0.8166
vn 0.4985 0.1086 0.8601
vn 0.4178 0.0652 0.9062
vn 0.4771 0.1498 0.8660
vn 0.4178 0.0654 0.9062
vn 0.4056 0.1849 0.8952
vn 0.4770 0.1499 0.8660
vn -0.2109 0.9449 0.2503
vn -0.2355 0.9338 0.2692
vn -0.2356 0.9338 0.2692
vn 0.0005 0.9545 0.2981
vn -0.9772 0.2008 -0.0685
vn -0.9598 0.2524 -0.1230
vn -0.9546 0.2504 -0.1612
vn -0.9598 0.2524 -0.1231
vn -0.9896 0.0297 -0.1404
vn -0.9598 0.2523 -0.1230
vn -0.9953 0.0051 -0.0971
vn -0.9897 0.0296 -0.1403
vn -0.9897 0.0296 -0.1404
vn -0.9902 -0.0946 -0.1025
vn -0.9232 0.3096 0.2278
vn -0.5401 -0.5647 0.6240
vn -0.5007 -0.4086 0.7631
vn -0.5299 -0.4820 0.6978
vn -0.4900 -0.2993 0.8187
vn -0.5299 -0.4819 0.6979
vn -0.8603 -0.4275 -0.2775
vn -0.8604 -0.4274 -0.2775
vn -0.5232 -0.7835 0.3351
vn -0.5300 -0.4820 0.6977
vn 0.5029 0.1949 0.8421
vn 0.5301 0.2322 0.8155
vn 0.4771 0.1500 0.8660
vn 0.5302 0.2322 0.8155
vn 0.4985 0.1087 0.8600
vn -0.1283 -0.9917 0.0037
vn -0.2020 -0.9792 -0.0173
vn -0.2798 -0.9579 -0.0648
vn 0.0023 -0.9824 -0.1869
vn 0.0843 -0.9877 -0.1319
vn 0.0835 -0.9867 -0.1396
vn 0.0843 -0.9877 -0.1318
vn 0.1233 -0.9393 -0.3203
vn -0.8721 0.4848 -0.0668
vn 0.0022 -0.9442 -0.3294
vn -0.2798 -0.9579 -0.0649
vn 0.0022 -0.9824 -0.1869
vn 0.1562 -0.8500 -0.5030
vn 0.1233 -0.9392 -0.3204
vn -0.5231 -0.7837 0.3350
vn -0.4350 -0.8951 0.0982
vn -0.2799 -0.9578 -0.0648
vn -0.7121 0.3938 0.5812
vn -0.7203 0.3162 0.6173
vn -0.4970 0.5561 0.6661
vn -0.7122 0.3938 0.5812
vn -0.4970 0.5562 0.6661
vn -0.6571 -0.7429 -0.1277
vn -0.6445 -0.7606 -0.0781
vn -0.8026 -0.5940 -0.0538
vn -0.8692 -0.4929 -0.0398
vn -0.6571 -0.7429 -0.1278
vn -0.8942 0.1108 0.4338
vn -0.7205 0.3162 0.6172
vn -0.7122 0.3937 0.5812
vn -0.7822 0.3401 0.5220
vn -0.8316 0.0494 0.5532
vn 0.5235 0.1087 -0.8451
vn 0.4225 0.1183 -0.8986
vn 0.4990 0.0027 -0.8666
vn 0.2591 -0.1440 -0.9550
vn 0.4225 0.1184 -0.8986
vn 0.2590 -0.1441 -0.9551
vn 0.0008 0.8053 -0.5928
vn 0.3114 0.7927 -0.5241
vn 0.0005 0.5527 -0.8334
vn 0.3113 0.7927 -0.5241
vn 0.3267 0.3737 -0.8681
vn 0.0004 -0.6859 -0.7277
vn 0.3677 -0.7782 -0.5091
vn 0.0002 -0.8537 -0.5207
vn 0.0003 -0.8537 -0.5207
vn 0.3677 -0.7783 -0.5090
vn 0.2572 -0.9371 -0.2359
vn 0.5025 0.1893 -0.8436
vn 0.4969 0.3545 -0.7921
vn 0.5235 0.1088 -0.8451
vn 0.5235 0.1089 -0.8450
vn 0.4225 0.1185 -0.8986
vn 0.3393 0.6821 -0.6478
vn 0.1356 0.8469 -0.5142
vn 0.3391 0.6822 -0.6478
vn 0.0011 0.8548 -0.5190
vn 0.9560 -0.2641 -0.1280
vn 0.9732 -0.1641 -0.1614
vn 0.8489 -0.5258 -0.0535
vn 0.9224 -0.3782 -0.0788
vn 0.9767 -0.0594 -0.2061
vn 0.9224 -0.3781 -0.0788
vn 0.0014 -0.2769 -0.9609
vn 0.4429 -0.0608 -0.8945
vn 0.5025 0.1892 -0.8436
vn 0.5235 0.1087 -0.8450
vn 0.5807 -0.0171 -0.8139
vn 0.4991 0.0027 -0.8665
vn 0.3268 0.3736 -0.8681
vn 0.7382 0.0287 -0.6739
vn 0.7383 0.0286 -0.6739
vn 0.5808 -0.0171 -0.8139
vn 0.4990 0.0028 -0.8666
vn 0.0007 0.1817 -0.9833
vn 0.3267 0.3736 -0.8681
vn 0.0008 0.1816 -0.9834
vn 0.7518 -0.6474 -0.1249
vn 0.8488 -0.5259 -0.0535
vn 0.7450 -0.6563 -0.1197
vn 0.8489 -0.5259 -0.0535
vn 0.4681 -0.8837 -0.0044
vn 0.3677 -0.7783 -0.5089
vn 0.4680 -0.8837 -0.0045
vn 0.2574 -0.9371 -0.2359
vn 0.4680 -0.8837 -0.0044
vn 0.5157 0.8402 -0.1680
vn 0.5157 0.8401 -0.1680
vn 0.3753 0.9268 0.0153
vn 0.5158 0.8401 -0.1681
vn 0.3115 0.7927 -0.5240
vn 0.7384 0.0286 -0.6738
vn 0.9767 -0.0594 -0.2062
vn 0.3264 -0.2185 -0.9196
vn 0.3275 0.9354 0.1332
vn 0.3457 0.9383 0.0104
vn 0.3362 0.9378 0.0869
vn 0.3524 0.9355 0.0260
vn 0.2546 0.9529 -0.1645
vn -0.1810 0.9796 -0.0876
vn 0.2546 0.9529 -0.1646
vn 0.0005 0.9578 -0.2875
vn 0.2545 0.9529 -0.1648
vn 0.0006 0.9578 -0.2875
vn -0.4883 0.5534 0.6747
vn -0.5835 0.3654 0.7253
vn -0.5835 0.3653 0.7253
vn -0.5836 0.3652 0.7253
vn -0.7006 0.2463 0.6697
vn 0.2739 0.1379 0.9518
vn 0.6651 0.5993 0.4455
vn 0.5966 0.6114 0.5199
vn 0.7135 0.3930 0.5801
vn 0.2623 -0.9312 0.2530
vn 0.0004 -0.9982 -0.0599
vn 0.0006 -0.9709 0.2397
vn 0.2623 -0.9312 0.2532
vn 0.1925 -0.8205 0.5382
vn 0.0006 -0.9708 0.2399
vn 0.9831 -0.1250 -0.1334
vn 0.9562 0.0041 -0.2926
vn 0.3761 -0.7929 -0.4794
vn 0.3924 -0.8947 -0.2134
vn -0.8038 -0.2523 0.5388
vn 0.2623 -0.9312 0.2531
vn 0.5493 -0.6335 0.5449
vn 0.1926 -0.8205 0.5382
vn 0.9730 -0.2072 0.1020
vn 0.9368 -0.0819 0.3401
vn 0.8038 -0.5925 -0.0534
vn 0.9224 -0.3782 -0.0789
vn 0.8723 -0.3672 -0.3228
vn 0.9546 0.2936 -0.0511
vn 0.9767 -0.0593 -0.2062
vn 0.9016 0.4272 -0.0686
vn 0.8186 0.5727 0.0439
vn 0.9015 0.4272 -0.0686
vn 0.5331 -0.0341 0.8453
vn 0.2497 0.7875 0.5634
vn 0.2162 0.7002 0.6805
vn 0.2162 0.7001 0.6805
vn 0.2162 0.7000 0.6806
vn 0.1778 0.5968 0.7825
vn 0.3362 0.9378 0.0870
vn 0.0010 0.9541 0.2994
vn 0.8356 -0.4992 0.2293
vn 0.7161 -0.5269 0.4578
vn 0.7169 -0.5252 0.4585
vn 0.7160 -0.5269 0.4579
vn 0.5483 -0.5192 0.6556
vn -0.2456 -0.9054 0.3464
vn -0.2073 -0.9586 0.1952
vn -0.2073 -0.9587 0.1950
vn -0.2072 -0.9587 0.1950
vn -0.1633 -0.9858 0.0384
vn 0.7999 0.1689 0.5758
vn 0.8633 0.3259 0.3854
vn 0.8186 0.5727 0.0440
vn 0.8633 0.3260 0.3852
vn 0.9874 0.0096 -0.1580
vn 0.9562 0.0041 -0.2927
vn 0.8174 0.1274 -0.5618
vn 0.9687 0.1334 0.2092
vn 0.9529 0.2957 -0.0674
vn 0.9016 0.4271 -0.0686
vn -0.7393 0.3288 0.5876
vn -0.7006 0.2464 0.6697
vn 0.3768 -0.9236 0.0704
vn 0.3924 -0.8948 -0.2131
vn -0.6417 0.7666 -0.0240
vn 0.7220 0.3160 0.6155
vn 0.7135 0.3928 0.5802
vn 0.4734 0.4872 0.7338
vn 0.7135 0.3929 0.5802
vn 0.5218 0.6172 0.5889
vn 0.6466 -0.7589 -0.0779
vn 0.6590 -0.7413 -0.1271
vn 0.8037 -0.5926 -0.0533
vn 0.6590 -0.7413 -0.1272
vn 0.6696 -0.7215 -0.1760
vn 0.8037 -0.5926 -0.0534
vn 0.7221 0.3159 0.6155
vn 0.8657 0.0807 0.4941
vn 0.8656 0.0807 0.4942
vn 0.7135 0.3927 0.5802
vn 0.6866 0.5247 -0.5033
vn 0.6121 0.7004 -0.3672
vn 0.7401 0.5596 -0.3729
vn 0.6121 0.7004 -0.3671
vn 0.7108 0.6679 -0.2205
vn 0.6120 0.7005 -0.3671
vn 0.2919 0.9029 -0.3156
vn 0.8360 0.3969 0.3789
vn 0.4134 0.7508 0.5151
vn 0.5844 0.5264 0.6175
vn 0.4134 0.7508 0.5152
vn 0.3191 0.3875 0.8649
vn 0.5843 0.5265 0.6176
vn 0.5843 0.5264 0.6177
vn 0.3192 0.3874 0.8649
vn 0.3602 0.2062 0.9098
vn 0.3191 0.3874 0.8649
vn 0.2830 0.1456 0.9480
vn -0.6803 0.1419 0.7190
vn -0.6876 0.4014 0.6051
vn -0.7466 0.2147 0.6297
vn -0.7467 0.2147 0.6295
vn -0.6876 0.4015 0.6050
vn -0.6971 0.6284 0.3452
vn -0.6875 0.4016 0.6050
vn -0.5990 0.7678 0.2274
vn -0.5991 0.7678 0.2272
vn -0.4729 0.7930 -0.3841
vn -0.1155 0.8961 -0.4285
vn -0.3491 0.6925 -0.6313
vn -0.3492 0.6925 -0.6313
vn -0.5721 0.4958 -0.6534
vn -0.3492 0.6924 -0.6313
vn -0.3381 0.5162 -0.7870
vn -0.5720 0.4958 -0.6535
vn -0.0027 -1.0000 -0.0064
vn -0.0036 -1.0000 -0.0030
vn -0.0022 -1.0000 -0.0031
vn -0.0022 -1.0000 -0.0030
vn -0.0019 -1.0000 -0.0013
vn -0.9675 0.1965 -0.1590
vn -0.9246 0.2531 -0.2849
vn -0.9675 0.1864 -0.1708
vn -0.9673 0.2066 -0.1472
vn -0.9245 0.2531 -0.2849
vn 0.0005 -1.0000 0.0038
vn 0.0017 -1.0000 0.0055
vn 0.0006 -1.0000 0.0039
vn 0.0001 -1.0000 -0.0005
vn 0.9007 0.1980 0.3867
vn 0.8360 0.3968 0.3789
vn 0.5843 0.5264 0.6176
vn 0.9411 0.2971 0.1615
vn 0.9411 0.2972 0.1613
vn 0.9205 0.3848 -0.0672
vn 0.0001 -1.0000 -0.0004
vn -0.0021 -1.0000 -0.0030
vn -0.0019 -1.0000 -0.0014
vn -0.7799 0.3503 -0.5187
vn -0.9245 0.2532 -0.2850
vn -0.5087 0.0451 0.8598
vn -0.5133 0.0412 0.8572
vn -0.5179 0.0374 0.8546
vn 0.8178 -0.2764 0.5047
vn 0.8198 -0.2733 0.5032
vn 0.8218 -0.2702 0.5017
vn 0.5510 0.0742 -0.8312
vn 0.5507 0.0756 -0.8312
vn 0.5508 0.0753 -0.8312
vn 0.5505 0.0768 -0.8313
vn -0.7819 0.3986 -0.4794
vn -0.7818 0.3966 -0.4811
vn -0.7817 0.3946 -0.4829
vn -0.1687 -0.4483 -0.8778
vn -0.2201 -0.4281 -0.8765
vn 0.3252 0.1763 -0.9291
vn -0.4892 0.8412 0.2303
vn -0.2706 0.9485 0.1645
vn 0.8992 -0.1224 0.4201
vn 0.8625 -0.2121 0.4594
vn 0.8625 -0.2122 0.4595
vn 0.8298 -0.2838 0.4804
vn 0.8178 -0.3211 0.4775
vn 0.8299 -0.2838 0.4804
vn 0.8364 -0.2509 0.4874
vn 0.8439 -0.2152 0.4914
vn 0.8364 -0.2508 0.4874
vn 0.8342 -0.2002 0.5138
vn -0.3271 -0.9372 0.1210
vn 0.0020 -0.1237 -0.9923
vn -0.0396 -0.2420 -0.9695
vn -0.6725 0.6793 0.2937
vn -0.7928 0.4784 0.3776
vn -0.6681 0.6783 0.3059
vn -0.8512 0.3607 0.3812
vn -0.7929 0.4782 0.3776
vn -0.7929 0.4783 0.3776
vn -0.8227 0.3738 0.4283
vn -0.0021 -0.1234 -0.9924
vn -0.0396 -0.2421 -0.9695
vn 0.3240 0.9287 0.1804
vn 0.2707 0.9428 0.1947
vn 0.3241 0.9287 0.1804
vn 0.3763 0.9116 0.1654
vn -0.3222 -0.9286 -0.1838
vn -0.3320 -0.9135 -0.2350
vn -0.3222 -0.9287 -0.1838
vn -0.3115 -0.9410 -0.1321
vn -0.4894 0.8411 0.2303
vn -0.6768 0.6802 0.2814
vn -0.8909 0.3628 0.2734
vn -0.8930 0.3521 0.2802
vn 0.4563 0.5337 0.7120
vn 0.9552 0.1956 -0.2222
vn 0.9447 0.2791 -0.1723
vn 0.9616 0.0633 -0.2671
vn -0.0621 0.3220 -0.9447
vn -0.0836 0.3433 -0.9355
vn 0.0305 0.5058 -0.8621
vn 0.1877 -0.9241 -0.3329
vn 0.2451 -0.9189 -0.3091
vn -0.6929 -0.7201 -0.0371
vn -0.6881 -0.7247 -0.0357
vn 0.2466 -0.1707 0.9540
vn 0.2057 -0.1755 0.9628
vn 0.2270 -0.1595 0.9608
vn 0.2110 0.7963 -0.5669
vn -0.3999 0.8754 0.2715
vn 0.9551 0.1958 -0.2222
vn 0.8858 0.4484 -0.1196
vn 0.9446 0.2793 -0.1722
vn -0.8886 0.3734 0.2665
vn 0.9552 0.1956 -0.2223
vn 0.9616 0.0632 -0.2671
vn 0.9490 0.0260 -0.3142
vn -0.1053 0.2957 -0.9494
vn -0.0622 0.3220 -0.9447
vn 0.0304 0.5057 -0.8622
vn -0.1481 0.3377 -0.9295
vn -0.0837 0.3433 -0.9355
vn 0.3016 -0.9101 -0.2841
vn 0.2452 -0.9189 -0.3091
vn -0.6833 -0.7293 -0.0343
vn 0.2872 -0.1656 0.9435
vn 0.2481 -0.1434 0.9581
vn 0.2270 -0.1595 0.9607
vn 0.5589 -0.1001 -0.8232
vn 0.5662 -0.0619 -0.8220
vn 0.5630 -0.0960 -0.8208
vn 0.5662 -0.0618 -0.8220
vn 0.5687 -0.0275 -0.8221
vn 0.5186 0.0417 -0.8540
vn 0.5687 -0.0274 -0.8221
vn 0.4915 0.0591 -0.8689
vn 0.4154 0.3456 0.8415
vn 0.3971 0.2980 0.8680
vn 0.3792 0.3604 0.8522
vn 0.3792 0.3604 0.8523
vn 0.3971 0.2980 0.8681
vn 0.3264 0.2515 0.9111
vn 0.3971 0.2979 0.8681
vn 0.2286 0.2330 0.9452
vn 0.3264 0.2514 0.9112
vn 0.3263 0.2514 0.9112
vn 0.2285 0.2331 0.9452
vn 0.1246 0.2610 0.9573
vn -0.9696 -0.2164 -0.1146
vn -0.9841 -0.1776 0.0028
vn -0.9800 -0.1803 -0.0840
vn -0.9800 -0.1803 -0.0839
vn -0.9645 -0.2634 0.0195
vn -0.9921 -0.1137 0.0532
vn -0.9924 -0.1039 0.0653
vn -0.9915 -0.1235 0.0410
vn -0.9921 -0.1137 0.0531
vn 0.5185 0.0417 -0.8541
vn 0.4107 0.1147 -0.9045
vn 0.4915 0.0592 -0.8689
vn 0.0479 0.3161 0.9475
vn -0.9862 -0.0574 -0.1551
vn -0.9800 -0.1802 -0.0840
vn 0.8907 0.0610 0.4506
vn 0.8897 0.0637 0.4521
vn 0.8916 0.0583 0.4490
vn -0.4724 0.1308 0.8716
vn -0.4709 0.1278 0.8729
vn -0.4739 0.1337 0.8704
vn -0.8431 0.1553 -0.5149
vn -0.8415 0.1582 -0.5165
vn -0.8446 0.1524 -0.5132
vn 0.5172 0.0802 -0.8521
vn 0.5169 0.0798 -0.8523
vn 0.5174 0.0805 -0.8519
vn 0.5176 0.0808 -0.8518
vn 0.0605 0.9982 0.0016
vn 0.0623 0.9980 0.0084
vn 0.0586 0.9983 -0.0052
vn -0.0418 -0.9991 -0.0010
vn -0.0403 -0.9992 0.0044
vn -0.0432 -0.9990 -0.0064
vn -0.6121 0.7004 -0.3672
vn -0.6866 0.5247 -0.5033
vn -0.8150 0.5099 -0.2753
vn -0.6121 0.7004 -0.3671
vn -0.8150 0.5099 -0.2751
vn -0.5965 0.7981 -0.0853
vn -0.0903 0.9203 -0.3807
vn -0.6120 0.7005 -0.3671
vn -0.5965 0.7981 -0.0852
vn -0.4134 0.7508 0.5151
vn -0.5843 0.5265 0.6175
vn -0.3191 0.3875 0.8649
vn -0.4134 0.7508 0.5152
vn -0.5843 0.5264 0.6176
vn -0.3192 0.3874 0.8649
vn -0.5844 0.5264 0.6176
vn -0.6812 0.2181 0.6988
vn -0.2830 0.1456 0.9480
vn -0.3191 0.3874 0.8649
vn 0.7466 0.2147 0.6296
vn 0.6803 0.1419 0.7190
vn 0.7466 0.2147 0.6297
vn 0.7467 0.2147 0.6296
vn 0.7467 0.2147 0.6295
vn 0.6971 0.6284 0.3452
vn 0.5991 0.7678 0.2273
vn 0.4895 0.7247 0.4850
vn 0.5991 0.7678 0.2272
vn 0.9077 0.3995 -0.1282
vn 0.3471 0.7693 -0.5363
vn -0.0902 0.9203 -0.3807
vn 0.5171 0.6530 -0.5534
vn 0.3474 0.7692 -0.5363
vn 0.5171 0.6529 -0.5534
vn 0.4493 0.5538 -0.7010
vn 0.3381 0.5162 -0.7870
vn 0.4492 0.5538 -0.7011
vn 0.0036 -1.0000 -0.0030
vn 0.0027 -1.0000 -0.0064
vn 0.0022 -1.0000 -0.0031
vn 0.0022 -1.0000 -0.0030
vn 0.0044 -1.0000 0.0003
vn 0.9077 0.3994 -0.1283
vn 0.9675 0.1965 -0.1590
vn 0.8944 0.2747 -0.3529
vn 0.9673 0.2066 -0.1472
vn 0.9077 0.3995 -0.1283
vn -0.0006 -1.0000 0.0015
vn -0.0009 -1.0000 0.0044
vn -0.0017 -1.0000 0.0055
vn -0.0001 -1.0000 -0.0005
vn -0.0010 -1.0000 0.0044
vn -0.0007 -1.0000 0.0015
vn -0.9326 0.2676 0.2420
vn -0.6813 0.2181 0.6988
vn -0.9411 0.2971 0.1614
vn -0.9327 0.2675 0.2420
vn -0.9411 0.2971 0.1613
vn -0.9327 0.2676 0.2419
vn -0.8151 0.5099 -0.2750
vn 0.0021 -1.0000 -0.0030
vn -0.0001 -1.0000 -0.0004
vn -0.0006 -1.0000 0.0016
vn 0.5172 0.6529 -0.5534
vn 0.7799 0.3503 -0.5187
vn -0.5662 -0.0619 -0.8220
vn -0.5589 -0.1001 -0.8231
vn -0.5630 -0.0960 -0.8208
vn -0.5662 -0.0618 -0.8220
vn -0.5687 -0.0275 -0.8221
vn -0.5186 0.0417 -0.8540
vn -0.5687 -0.0274 -0.8221
vn -0.4915 0.0591 -0.8689
vn -0.3792 0.3604 0.8522
vn -0.4154 0.3456 0.8415
vn -0.3792 0.3604 0.8523
vn -0.3264 0.2515 0.9111
vn -0.3161 0.1878 0.9299
vn -0.4275 0.1692 0.8880
vn -0.3264 0.2515 0.9112
vn -0.3161 0.1878 0.9300
vn -0.1246 0.2610 0.9573
vn 0.9806 -0.1956 -0.0100
vn 0.9812 -0.1374 -0.1353
vn 0.9695 -0.2405 -0.0477
vn 0.9819 -0.1843 0.0425
vn 0.9921 -0.1137 0.0532
vn 0.9807 -0.1955 -0.0100
vn 0.9820 -0.1843 0.0426
vn 0.9921 -0.1137 0.0531
vn 0.9915 -0.1235 0.0410
vn -0.4107 0.1147 -0.9045
vn -0.5185 0.0417 -0.8541
vn -0.4915 0.0592 -0.8689
vn -0.0479 0.3161 0.9475
vn 0.9812 -0.1373 -0.1353
vn 0.9862 -0.0574 -0.1551
vn 0.5133 0.0412 0.8572
vn 0.5087 0.0451 0.8598
vn 0.5179 0.0374 0.8546
vn -0.8198 -0.2733 0.5032
vn -0.8178 -0.2764 0.5047
vn -0.8218 -0.2702 0.5017
vn -0.5507 0.0756 -0.8312
vn -0.5510 0.0742 -0.8312
vn -0.5508 0.0754 -0.8312
vn -0.5505 0.0768 -0.8313
vn 0.7818 0.3966 -0.4811
vn 0.7819 0.3986 -0.4794
vn 0.7817 0.3946 -0.4829
vn -0.3240 0.9287 0.1804
vn -0.2707 0.9428 0.1947
vn -0.3763 0.9116 0.1654
vn -0.3241 0.9287 0.1804
vn 0.3222 -0.9286 -0.1838
vn 0.3320 -0.9135 -0.2350
vn 0.3115 -0.9410 -0.1321
vn 0.3222 -0.9287 -0.1838
vn 0.8930 0.3521 0.2802
vn 0.8909 0.3628 0.2734
vn -0.4563 0.5337 0.7120
vn -0.9447 0.2791 -0.1723
vn -0.9552 0.1956 -0.2222
vn -0.9616 0.0633 -0.2671
vn 0.0836 0.3433 -0.9355
vn 0.0621 0.3220 -0.9447
vn 0.0909 0.3276 -0.9404
vn -0.1877 -0.9241 -0.3329
vn -0.2451 -0.9189 -0.3091
vn 0.6929 -0.7201 -0.0371
vn 0.6881 -0.7247 -0.0357
vn -0.2466 -0.1707 0.9540
vn -0.2471 -0.1616 0.9554
vn -0.2057 -0.1755 0.9628
vn -0.2110 0.7963 -0.5669
vn 0.3999 0.8754 0.2715
vn -0.8858 0.4484 -0.1196
vn -0.9552 0.1957 -0.2222
vn -0.9446 0.2792 -0.1723
vn 0.8886 0.3734 0.2665
vn -0.9616 0.0632 -0.2671
vn -0.9552 0.1956 -0.2223
vn -0.9490 0.0260 -0.3142
vn 0.0622 0.3220 -0.9447
vn 0.1053 0.2957 -0.9494
vn 0.0909 0.3275 -0.9405
vn 0.0837 0.3433 -0.9355
vn 0.0910 0.3275 -0.9405
vn 0.1481 0.3377 -0.9295
vn -0.2452 -0.9189 -0.3091
vn -0.3016 -0.9101 -0.2841
vn 0.6833 -0.7293 -0.0343
vn -0.2472 -0.1616 0.9554
vn -0.2872 -0.1656 0.9435
vn -0.2481 -0.1434 0.9581
vn -0.8897 0.0637 0.4521
vn -0.8907 0.0610 0.4506
vn -0.8906 0.0610 0.4506
vn -0.8916 0.0583 0.4490
vn 0.4709 0.1278 0.8729
vn 0.4724 0.1307 0.8716
vn 0.4724 0.1308 0.8716
vn 0.4739 0.1337 0.8704
vn 0.8415 0.1582 -0.5165
vn 0.8431 0.1553 -0.5149
vn 0.8446 0.1524 -0.5132
vn -0.5169 0.0798 -0.8523
vn -0.5173 0.0803 -0.8520
vn -0.5172 0.0803 -0.8521
vn -0.5176 0.0808 -0.8518
vn -0.0605 0.9982 0.0016
vn -0.0623 0.9980 0.0084
vn -0.0586 0.9983 -0.0052
vn 0.0418 -0.9991 -0.0010
vn 0.0403 -0.9992 0.0044
vn 0.0432 -0.9990 -0.0064
vt 0.241334 0.941873
vt 0.242472 0.852795
vt 0.127535 0.930367
vt 0.127535 0.992515
vt 0.571165 0.954961
vt 0.531039 0.928873
vt 0.534698 0.961145
vt 0.573205 0.966664
vt 0.127535 0.813729
vt 0.158829 0.761827
vt 0.127535 0.754775
vt 0.281520 0.751510
vt 0.360384 0.749908
vt 0.376530 0.960873
vt 0.280175 0.821768
vt 0.265590 0.756736
vt 0.258867 0.814373
vt 0.536686 0.986278
vt 0.530784 0.988544
vt 0.509150 0.972441
vt 0.519706 0.967906
vt 0.603046 0.501741
vt 0.514368 0.584531
vt 0.513417 0.482703
vt 0.555511 0.433765
vt 0.695838 0.596320
vt 0.636342 0.608471
vt 0.566105 0.616936
vt 0.526424 0.558913
vt 0.600992 0.577937
vt 0.526424 0.577937
vt 0.528710 0.377803
vt 0.559799 0.875081
vt 0.555309 0.851119
vt 0.574354 0.805233
vt 0.580834 0.880473
vt 0.572971 0.935603
vt 0.255842 0.837682
vt 0.470548 0.789918
vt 0.486682 0.852031
vt 0.544289 0.946073
vt 0.519580 0.967863
vt 0.515618 0.933388
vt 0.488353 0.991104
vt 0.508873 0.914764
vt 0.515735 0.933172
vt 0.720921 0.529715
vt 0.723125 0.425693
vt 0.589439 0.762743
vt 0.268576 0.928065
vt 0.628239 0.616452
vt 0.552607 0.495251
vt 0.652637 0.457598
vt 0.604283 0.981418
vt 0.675995 0.976154
vt 0.678844 0.987941
vt 0.608981 0.995036
vt 0.587457 0.985701
vt 0.578264 0.998703
vt 0.628465 0.901966
vt 0.690227 0.971979
vt 0.652178 0.875166
vt 0.646379 0.878887
vt 0.696869 0.923621
vt 0.637128 0.795091
vt 0.577024 0.755154
vt 0.637345 0.793344
vt 0.698638 0.819857
vt 0.310425 0.815727
vt 0.310467 0.816409
vt 0.310425 0.818063
vt 0.310419 0.817577
vt 0.741877 0.900156
vt 0.630342 0.884512
vt 0.604658 0.813080
vt 0.637079 0.857956
vt 0.690921 0.847367
vt 0.657056 0.900007
vt 0.740920 0.971882
vt 0.743615 0.937706
vt 0.545144 0.996835
vt 0.711364 0.556172
vt 0.621401 0.418400
vt 0.711364 0.413938
vt 0.722674 0.485055
vt 0.711364 0.485055
vt 0.621401 0.485055
vt 0.531414 0.485055
vt 0.531414 0.390087
vt 0.531414 0.597950
vt 0.621401 0.551710
vt 0.626134 0.925877
vt 0.630162 0.874288
vt 0.682459 0.942400
vt 0.630373 0.935359
vt 0.733274 0.859623
vt 0.641065 0.823922
vt 0.596358 0.871126
vt 0.539858 0.860357
vt 0.629003 0.863072
vt 0.723455 0.853326
vt 0.596850 0.803019
vt 0.574416 0.822533
vt 0.549186 0.796103
vt 0.647225 0.870415
vt 0.549186 0.791188
vt 0.596850 0.799768
vt 0.746052 0.897133
vt 0.703170 0.936326
vt 0.507399 0.656841
vt 0.519306 0.714935
vt 0.514176 0.656787
vt 0.641002 0.725812
vt 0.686672 0.748788
vt 0.703729 0.725812
vt 0.737077 0.714967
vt 0.723327 0.656787
vt 0.750514 0.656787
vt 0.751998 0.656771
vt 0.763392 0.714952
vt 0.779166 0.656771
vt 0.796741 0.725797
vt 0.813815 0.748772
vt 0.859455 0.725797
vt 0.981150 0.714919
vt 0.988332 0.656771
vt 0.997791 0.656718
vt 0.062531 0.747282
vt 0.021125 0.716251
vt 0.102655 0.716292
vt 0.004152 0.655678
vt 0.904594 0.656771
vt 0.119821 0.534097
vt 0.003750 0.534224
vt 0.121396 0.655728
vt 0.597899 0.656787
vt 0.062258 0.499505
vt 0.157739 0.741821
vt 0.157739 0.650256
vt 0.214762 0.733830
vt 0.214762 0.650256
vt 0.157739 0.558691
vt 0.214762 0.566682
vt 0.147505 0.733883
vt 0.196251 0.741199
vt 0.208048 0.604129
vt 0.223767 0.692245
vt 0.172299 0.546630
vt 0.142191 0.635000
vt 0.712771 0.823052
vt 0.645775 0.826552
vt 0.720769 0.946795
vt 0.643953 0.930311
vt 0.588278 0.817672
vt 0.551504 0.868604
vt 0.718200 0.828812
vt 0.655816 0.832698
vt 0.580252 0.804491
vt 0.511321 0.835608
vt 0.191349 0.560568
vt 0.143114 0.560568
vt 0.149889 0.747503
vt 0.191349 0.747503
vt 0.239584 0.560568
vt 0.232809 0.747503
s 1
usemtl Material.001
f 3/1/1 2/2/2 1/3/3
f 6/1/4 5/3/5 4/4/6
f 9/5/7 8/6/4 7/7/8
f 12/5/7 11/7/9 10/8/10
f 15/9/11 14/2/2 13/10/12
f 18/9/11 17/10/13 16/11/14
f 21/9/11 20/3/3 19/2/2
f 24/12/15 23/13/16 22/14/17
f 27/12/15 26/14/17 25/15/18
f 30/16/19 29/12/15 28/15/20
f 33/16/21 32/15/20 31/17/22
f 36/18/23 35/19/24 34/20/25
f 39/18/23 38/20/26 37/21/27
f 42/22/28 41/23/29 40/24/30
f 45/22/28 44/24/31 43/25/32
f 48/22/33 47/26/34 46/27/35
f 51/22/33 50/27/36 49/28/15
f 54/23/37 53/22/38 52/28/39
f 57/29/40 56/30/41 55/31/42
f 60/24/43 59/32/44 58/25/45
f 63/33/46 62/34/47 61/35/48
f 66/33/46 65/35/48 64/36/49
f 69/37/50 68/33/51 67/36/52
f 72/38/53 71/17/54 70/15/20
f 75/14/17 74/38/55 73/15/18
f 78/13/56 77/39/57 76/40/58
f 81/13/56 80/40/59 79/14/60
f 84/41/61 83/42/62 82/43/63
f 87/44/61 86/14/17 85/40/58
f 90/45/64 89/46/63 88/21/65
f 93/45/66 92/21/67 91/20/68
f 96/47/69 95/26/70 94/22/71
f 99/47/72 98/22/71 97/48/73
f 102/48/74 101/22/75 100/25/76
f 105/48/77 104/25/78 103/32/79
f 108/37/80 107/21/81 106/41/81
f 111/18/23 110/21/82 109/37/83
f 114/35/72 113/49/73 112/36/49
f 117/37/84 116/41/85 115/33/86
f 120/14/17 119/50/66 118/38/55
f 123/51/87 122/52/87 121/53/87
f 126/54/88 125/55/89 124/56/90
f 129/54/91 128/56/90 127/57/92
f 132/58/93 131/54/88 130/57/92
f 135/58/94 134/57/92 133/59/95
f 138/18/23 137/58/94 136/59/95
f 141/18/23 140/59/95 139/19/96
f 144/60/97 143/54/98 142/61/99
f 147/60/100 146/61/101 145/62/102
f 150/63/103 149/60/103 148/62/103
f 153/63/104 152/62/105 151/64/106
f 156/65/107 155/49/74 154/66/108
f 159/65/109 158/66/79 157/67/110
f 162/68/111 161/65/112 160/67/113
f 165/69/114 164/70/114 163/71/114
f 168/69/115 167/71/115 166/72/115
f 171/71/116 170/69/116 169/72/116
f 174/71/117 173/72/118 172/71/117
f 177/70/119 176/71/120 175/71/120
f 180/73/121 179/74/122 178/75/123
f 183/73/124 182/75/125 181/65/124
f 186/76/126 185/73/126 184/65/126
f 189/76/127 188/65/112 187/68/127
f 192/62/128 191/76/129 190/77/130
f 195/37/131 194/36/132 193/78/133
f 198/37/134 197/78/135 196/61/136
f 201/54/91 200/37/137 199/61/138
f 204/76/139 203/62/139 202/36/139
f 207/76/140 206/36/141 205/74/140
f 210/73/142 209/76/143 208/74/143
f 213/56/90 212/55/144 211/79/145
f 216/63/146 215/79/147 214/55/146
f 219/63/148 218/55/149 217/60/150
f 222/78/151 221/36/152 220/62/153
f 225/78/154 224/62/154 223/80/155
f 228/58/156 227/81/157 226/37/156
f 231/58/158 230/37/158 229/54/91
f 234/36/159 233/75/123 232/74/160
f 237/49/161 236/75/162 235/36/163
f 240/70/164 239/69/164 238/71/164
f 243/55/165 242/54/165 241/60/165
f 246/78/135 245/80/166 244/61/167
f 249/61/168 248/80/169 247/62/170
f 252/75/171 251/49/172 250/65/109
f 255/81/173 254/58/173 253/18/173
f 258/82/174 257/83/175 256/84/175
f 261/82/176 260/84/176 259/85/176
f 264/86/177 263/82/178 262/85/178
f 267/86/179 266/85/180 265/84/181
f 270/87/182 269/86/183 268/84/184
f 273/87/185 272/84/184 271/83/186
f 276/88/187 275/87/185 274/83/188
f 279/88/187 278/83/188 277/89/189
f 282/90/190 281/88/190 280/89/190
f 285/90/191 284/89/192 283/91/193
f 288/92/194 287/93/195 286/94/196
f 291/95/197 290/92/198 289/94/196
f 294/95/199 293/94/200 292/5/201
f 297/8/202 296/95/203 295/5/204
f 300/94/205 299/96/206 298/97/207
f 303/94/208 302/97/207 301/98/209
f 306/6/210 305/94/211 304/98/212
f 309/6/210 308/98/213 307/99/214
f 312/91/215 311/86/216 310/87/217
f 315/91/218 314/87/219 313/88/220
f 318/90/221 317/91/222 316/88/223
f 321/100/224 320/101/224 319/102/224
f 324/100/225 323/102/226 322/98/227
f 327/93/228 326/100/229 325/98/227
f 330/103/230 329/104/231 328/99/2
f 333/103/232 332/99/233 331/98/234
f 336/102/226 335/103/235 334/98/236
f 339/105/237 338/96/238 337/94/239
f 342/105/237 341/94/239 340/93/240
f 345/106/241 344/104/242 343/102/243
f 348/106/241 347/102/244 346/107/245
f 351/91/246 350/89/247 349/83/248
f 354/91/246 353/83/249 352/82/174
f 357/97/250 356/93/251 355/98/252
f 360/105/253 359/93/254 358/97/255
f 363/82/256 362/86/257 361/91/258
f 366/5/259 365/94/259 364/6/260
f 369/102/261 368/101/262 367/107/263
f 372/97/264 371/96/265 370/105/265
f 375/104/266 374/103/267 373/102/268
f 378/2/269 377/1/270 376/3/271
f 381/3/272 380/1/273 379/4/274
f 384/6/275 383/5/276 382/7/274
f 387/7/277 386/5/276 385/8/278
f 390/2/279 389/9/11 388/10/280
f 393/10/281 392/9/282 391/11/283
f 396/3/284 395/9/11 394/2/285
f 399/93/286 398/92/287 397/94/288
f 402/92/289 401/95/290 400/94/291
f 405/94/292 404/95/293 403/5/293
f 408/95/294 407/8/295 406/5/294
f 411/96/296 410/94/297 409/97/298
f 414/97/298 413/94/299 412/98/300
f 417/94/301 416/6/302 415/98/303
f 420/98/304 419/6/302 418/99/305
f 423/101/306 422/100/306 421/102/306
f 426/102/307 425/100/308 424/98/309
f 429/100/308 428/93/310 427/98/311
f 432/104/280 431/103/312 430/99/269
f 435/99/305 434/103/313 433/98/304
f 438/103/314 437/102/307 436/98/315
f 441/96/316 440/105/317 439/94/318
f 444/94/318 443/105/319 442/93/320
f 447/104/321 446/106/322 445/102/323
f 450/102/323 449/106/322 448/107/324
f 453/93/325 452/97/325 451/98/326
f 456/93/327 455/105/328 454/97/327
f 459/94/297 458/5/329 457/6/329
f 462/101/330 461/102/331 460/107/332
f 465/96/333 464/97/333 463/105/334
f 468/103/335 467/104/336 466/102/337
f 471/64/338 470/108/339 469/109/340
f 474/63/104 473/64/341 472/109/342
f 477/68/343 476/108/344 475/77/345
f 480/76/346 479/68/347 478/77/345
f 483/77/348 482/108/349 481/64/350
f 486/62/351 485/77/352 484/64/350
f 489/13/353 488/12/354 487/14/355
f 492/14/355 491/12/354 490/15/356
f 495/12/357 494/16/19 493/15/358
f 498/15/358 497/16/19 496/17/22
f 501/19/359 500/18/360 499/20/361
f 504/20/68 503/18/362 502/21/363
f 507/23/364 506/22/365 505/24/366
f 510/24/367 509/22/368 508/25/369
f 513/26/370 512/22/371 511/27/372
f 516/27/373 515/22/371 514/28/374
f 519/22/371 518/23/375 517/28/357
f 522/30/376 521/29/377 520/31/378
f 525/32/44 524/24/43 523/25/369
f 528/34/379 527/33/380 526/35/381
f 531/35/381 530/33/380 529/36/382
f 534/33/380 533/37/383 532/36/384
f 537/17/385 536/38/55 535/15/358
f 540/38/386 539/14/355 538/15/358
f 543/39/387 542/13/388 541/40/389
f 546/40/389 545/13/388 544/14/390
f 549/42/391 548/41/392 547/43/390
f 552/14/390 551/44/393 550/40/394
f 555/46/395 554/45/396 553/21/397
f 558/21/363 557/45/398 556/20/361
f 561/26/399 560/47/400 559/22/401
f 564/22/401 563/47/402 562/48/403
f 567/22/404 566/48/405 565/25/406
f 570/25/369 569/48/407 568/32/108
f 573/21/408 572/37/409 571/41/410
f 576/21/411 575/18/412 574/37/411
f 579/49/403 578/35/402 577/36/382
f 582/41/413 581/37/414 580/33/380
f 585/50/66 584/14/355 583/38/386
f 588/52/415 587/51/415 586/53/415
f 591/55/416 590/54/417 589/56/418
f 594/56/418 593/54/417 592/57/419
f 597/54/417 596/58/420 595/57/419
f 600/57/421 599/58/422 598/59/423
f 603/58/424 602/18/412 601/59/425
f 606/59/423 605/18/412 604/19/96
f 609/54/426 608/60/427 607/61/427
f 612/61/428 611/60/429 610/62/430
f 615/60/431 614/63/431 613/62/431
f 618/62/432 617/63/433 616/64/434
f 621/49/407 620/65/435 619/66/436
f 624/66/108 623/65/435 622/67/437
f 627/65/438 626/68/439 625/67/440
f 630/74/441 629/73/441 628/75/442
f 633/75/443 632/73/443 631/65/444
f 636/73/445 635/76/445 634/65/445
f 639/65/446 638/76/447 637/68/448
f 642/76/449 641/62/450 640/77/451
f 645/36/452 644/37/414 643/78/453
f 648/78/454 647/37/455 646/61/456
f 651/37/457 650/54/457 649/61/458
f 654/62/459 653/76/459 652/36/459
f 657/36/460 656/76/461 655/74/462
f 660/76/463 659/73/464 658/74/463
f 663/55/416 662/56/465 661/79/466
f 666/79/467 665/63/468 664/55/469
f 669/55/470 668/63/470 667/60/471
f 672/36/472 671/78/473 670/62/473
f 675/62/474 674/78/475 673/80/476
f 678/81/477 677/58/478 676/37/477
f 681/37/479 680/58/480 679/54/479
f 684/75/442 683/36/481 682/74/481
f 687/75/482 686/49/483 685/36/483
f 690/54/484 689/55/484 688/60/484
f 693/80/485 692/78/485 691/61/486
f 696/80/487 695/61/487 694/62/488
f 699/49/407 698/75/489 697/65/490
f 702/58/491 701/81/491 700/18/491
f 705/108/492 704/64/493 703/109/494
f 708/64/495 707/63/433 706/109/496
f 711/108/497 710/68/498 709/77/499
f 714/68/500 713/76/501 712/77/502
f 717/108/503 716/77/504 715/64/493
f 720/77/505 719/62/450 718/64/506
f 723/110/507 722/111/508 721/112/509
f 726/112/509 725/111/510 724/113/511
f 729/111/512 728/114/513 727/113/511
f 732/113/514 731/114/515 730/115/516
f 735/114/517 734/116/518 733/115/519
f 738/115/520 737/116/521 736/117/522
f 741/116/523 740/118/524 739/117/522
f 744/119/525 743/120/526 742/121/527
f 747/121/528 746/120/529 745/122/530
f 750/120/531 749/123/532 748/122/530
f 753/122/530 752/123/533 751/124/534
f 756/123/535 755/125/536 754/124/534
f 759/124/534 758/125/537 757/126/538
f 762/125/539 761/127/540 760/126/541
f 765/128/542 764/129/543 763/130/544
f 768/130/545 767/129/543 766/131/546
f 771/121/547 770/124/548 769/132/549
f 774/121/547 773/122/550 772/124/551
f 777/133/552 776/131/552 775/134/553
f 780/133/554 779/135/555 778/131/554
f 783/117/556 782/113/557 781/115/558
f 786/117/556 785/136/559 784/113/557
f 789/113/511 788/136/560 787/112/561
f 792/135/562 791/130/563 790/131/564
f 795/132/565 794/124/566 793/126/538
f 798/137/553 797/133/553 796/134/553
f 801/138/567 800/139/568 799/140/568
f 804/140/568 803/139/568 802/141/569
f 807/139/570 806/142/571 805/141/571
f 810/141/571 809/142/571 808/143/572
f 813/142/573 812/139/574 811/143/574
f 816/143/575 815/139/575 814/141/576
f 819/139/577 818/138/578 817/141/578
f 822/141/578 821/138/578 820/140/579
f 825/83/580 824/82/580 823/84/581
f 828/84/582 827/82/582 826/85/582
f 831/82/583 830/86/584 829/85/584
f 834/85/585 833/86/586 832/84/586
f 837/86/587 836/87/588 835/84/587
f 840/84/589 839/87/590 838/83/591
f 843/87/590 842/88/592 841/83/593
f 846/83/593 845/88/592 844/89/594
f 849/88/595 848/90/595 847/89/595
f 852/89/596 851/90/596 850/91/597
f 855/86/598 854/91/599 853/87/600
f 858/87/601 857/91/602 856/88/601
f 861/91/603 860/90/604 859/88/604
f 864/89/605 863/91/597 862/83/605
f 867/83/580 866/91/606 865/82/580
f 870/141/607 869/141/608 868/140/608
f 873/141/609 872/143/610 871/141/610
f 876/142/611 875/138/612 874/139/612
f 879/142/613 878/139/614 877/138/614
f 882/86/598 881/82/615 880/91/616
f 885/144/617 884/144/618 883/145/617
f 888/146/619 887/147/619 886/145/619
f 891/146/620 890/146/621 889/148/622
f 894/148/623 893/149/624 892/145/625
f 897/148/626 896/148/626 895/149/627
f 900/149/628 899/149/628 898/144/629
f 903/145/630 902/149/631 901/148/632
f 906/145/625 905/147/633 904/146/633
f 909/145/634 908/147/634 907/145/634
f 912/146/635 911/147/636 910/146/637
f 915/144/617 914/145/617 913/145/638
f 918/146/639 917/148/640 916/148/641
f 921/146/642 920/148/643 919/145/644
f 924/145/645 923/149/646 922/144/645
f 927/148/647 926/149/648 925/149/647
f 930/149/649 929/144/629 928/144/649
f 933/149/650 932/145/630 931/144/650
f 936/145/651 935/148/652 934/146/651
f 939/150/653 938/151/654 937/152/655
f 942/152/655 941/151/656 940/153/657
f 945/151/656 944/154/658 943/153/659
f 948/153/659 947/154/658 946/155/660
f 951/152/661 950/153/662 949/156/663
f 954/156/664 953/153/665 952/157/666
f 957/153/667 956/155/668 955/157/669
f 960/157/670 959/155/671 958/158/672
f 963/154/673 962/151/674 961/158/675
f 966/158/676 965/151/674 964/157/677
f 969/151/674 968/156/678 967/157/679
f 972/150/680 971/156/681 970/151/674
f 975/154/682 974/159/683 973/155/684
f 978/155/671 977/159/685 976/158/672
f 981/159/686 980/154/686 979/158/687
f 984/160/688 983/161/689 982/162/688
f 987/160/688 986/162/688 985/163/690
f 990/164/691 989/160/692 988/163/691
f 993/164/691 992/163/691 991/165/693
f 996/160/694 995/164/695 994/165/694
f 999/160/694 998/165/694 997/163/696
f 1002/161/697 1001/160/698 1000/163/697
f 1005/161/699 1004/163/699 1003/162/700
f 1008/165/701 1007/162/702 1006/163/702
f 1011/163/703 1010/162/703 1009/165/701
f 1014/164/704 1013/161/705 1012/160/705
f 1017/160/706 1016/161/706 1015/164/704
f 1020/111/707 1019/110/708 1018/112/709
f 1023/111/710 1022/112/711 1021/113/712
f 1026/114/713 1025/111/714 1024/113/715
f 1029/114/716 1028/113/715 1027/115/717
f 1032/116/718 1031/114/719 1030/115/720
f 1035/116/721 1034/115/722 1033/117/723
f 1038/118/724 1037/116/725 1036/117/723
f 1041/120/726 1040/119/727 1039/121/728
f 1044/120/729 1043/121/730 1042/122/731
f 1047/123/732 1046/120/733 1045/122/731
f 1050/123/734 1049/122/731 1048/124/735
f 1053/125/736 1052/123/737 1051/124/738
f 1056/125/739 1055/124/740 1054/126/741
f 1059/127/742 1058/125/742 1057/126/743
f 1062/129/744 1061/128/745 1060/130/746
f 1065/129/744 1064/130/747 1063/131/748
f 1068/124/749 1067/121/750 1066/132/751
f 1071/122/752 1070/121/750 1069/124/753
f 1074/131/754 1073/133/755 1072/134/756
f 1077/135/757 1076/133/758 1075/131/759
f 1080/113/760 1079/117/761 1078/115/720
f 1083/136/762 1082/117/761 1081/113/763
f 1086/136/764 1085/113/765 1084/112/766
f 1089/130/767 1088/135/768 1087/131/769
f 1092/124/770 1091/132/751 1090/126/771
f 1095/133/755 1094/137/756 1093/134/756
f 1098/151/772 1097/150/773 1096/152/774
f 1101/151/775 1100/152/774 1099/153/776
f 1104/154/777 1103/151/775 1102/153/778
f 1107/154/777 1106/153/778 1105/155/779
f 1110/153/780 1109/152/781 1108/156/780
f 1113/153/782 1112/156/782 1111/157/783
f 1116/155/784 1115/153/785 1114/157/786
f 1119/155/787 1118/157/786 1117/158/788
f 1122/151/789 1121/154/790 1120/158/791
f 1125/151/789 1124/158/791 1123/157/792
f 1128/156/793 1127/151/794 1126/157/795
f 1131/156/796 1130/150/797 1129/151/797
f 1134/159/798 1133/154/799 1132/155/800
f 1137/159/801 1136/155/801 1135/158/788
f 1140/154/802 1139/159/803 1138/158/803
f 1143/139/804 1142/138/805 1141/140/804
f 1146/139/804 1145/140/804 1144/141/806
f 1149/142/807 1148/139/808 1147/141/807
f 1152/142/807 1151/141/807 1150/143/809
f 1155/139/810 1154/142/811 1153/143/810
f 1158/139/812 1157/143/812 1156/141/813
f 1161/138/814 1160/139/815 1159/141/814
f 1164/138/814 1163/141/814 1162/140/816
f 1167/141/817 1166/141/818 1165/140/818
f 1170/143/819 1169/141/819 1168/141/820
f 1173/138/821 1172/142/822 1171/139/822
f 1176/139/823 1175/142/823 1174/138/824
f 1179/144/825 1178/144/826 1177/145/826
f 1182/147/827 1181/146/827 1180/145/827
f 1185/146/828 1184/146/829 1183/148/830
f 1188/149/831 1187/148/832 1186/145/833
f 1191/148/834 1190/148/835 1189/149/835
f 1194/149/836 1193/149/837 1192/144/837
f 1197/149/838 1196/145/839 1195/148/840
f 1200/147/841 1199/145/841 1198/146/841
f 1203/147/842 1202/145/842 1201/145/842
f 1206/147/843 1205/146/844 1204/146/845
f 1209/145/826 1208/144/826 1207/145/846
f 1212/148/847 1211/146/848 1210/148/849
f 1215/148/850 1214/146/851 1213/145/852
f 1218/149/853 1217/145/854 1216/144/855
f 1221/149/856 1220/148/856 1219/149/857
f 1224/144/837 1223/149/837 1222/144/858
f 1227/145/859 1226/149/838 1225/144/860
f 1230/148/861 1229/145/859 1228/146/861
f 1233/161/862 1232/160/863 1231/162/863
f 1236/162/864 1235/160/864 1234/163/865
f 1239/160/866 1238/164/867 1237/163/867
f 1242/163/868 1241/164/868 1240/165/869
f 1245/164/870 1244/160/871 1243/165/871
f 1248/165/871 1247/160/871 1246/163/872
f 1251/160/873 1250/161/874 1249/163/874
f 1254/163/875 1253/161/875 1252/162/876
f 1257/162/877 1256/165/878 1255/163/878
f 1260/162/877 1259/163/879 1258/165/879
f 1263/161/880 1262/164/881 1261/160/881
f 1266/161/880 1265/160/882 1264/164/882
